<svg xmlns="http://www.w3.org/2000/svg" viewBox="0 0 860 140" style="fill:currentColor;stroke:currentColor">
  <title>Beatriz e Guilherme</title>
  <path id="letter-b-leg" d="M27 33c2 24-2 48-4 72v12c0 2 1 3 2 1l1-12c1-25 10-85 3-83-1 0-2 2-2 10z" mask="url(#mask-letter-b-leg)"/>
  <path id="letter-b-arch" d="M21 20C39 2 53 9 55 11c6 5 4 13 2 16-4 12-13 20-21 28l-2 5c-2 5 5 6 8 6 32 1 32 19 30 28-6 27-38 44-56 38-5-1-6-5-8-9-3-6-4-2-4 1a14 14 0 0 0 5 9c15 12 51-3 63-30 2-2 15-30-15-40a42 42 0 0 0-14-2l-8 1c10-10 20-21 26-33C69 9 52 3 44 4c-11 0-21 6-27 13-5 5-5 11-3 11l7-8z" mask="url(#mask-letter-b-arch)"/>
  <path id="letter-e" d="M113 50c-1-3-8-10-19 4-9 11-16 26-17 43-2 15 5 23 14 23 12 1 28-11 26-14-1-3-14 9-25 10-13 1-16-19-7-41 9-20 22-26 24-25s-1 7-5 13c-6 11-20 19-25 25 6 5 38-26 34-38z" mask="url(#mask-letter-e)"/>
  <path id="letter-a" d="M147 57c-2-2-5-2-7-2-7 2-11 10-14 17a108 108 0 0 0-8 22c-2 6-3 11-2 17 2 7 9 5 11 2 21-27 19-71 19-8l1 8c1 8 8 6 8 3l-2-1c-1 0-1 3-2 1l-1-4a123 123 0 0 1 0-28l1-11c0-4 3-14-3-13-5 1-5 13-16 36-3 7-9 17-11 17-3 0-2-28 13-47 2-3 5-7 9-6 1 0 7 2 5 0 1-1 0-2-1-3z" mask="url(#mask-letter-a)"/>
  <path id="letter-t-trunk" d="M177 35c0 28-4 65-3 74l2 6c1 1 1-5 1-6l1-32 2-42c1-5 2-9 1-14-1-3-2-2-3-2-2 3-2 11-1 16z" mask="url(#mask-letter-t-trunk)"/>
  <path id="letter-t-bar" d="M169 73c10-2 19-7 28-12 8-4 7-5 6-6-5 0-10 3-14 5-21 9-13 4-22 8-4 2-4 2-3 4s4 1 5 1z" mask="url(#mask-letter-t-bar)"/>
  <path id="letters-ri" d="m206 75-4 38 1 3c5 7 2-17 11-41l4-8c4-6 9-8 17-7 2 1 5 0 7 2l1 2-1 5c1 17-2 36-2 43 0 2 0 6 2 7 2 0 3-2 2-3-5-1 0 6 0-4 0-36 7-44 1-52-2-4-14-7-22-3a23 23 0 0 0-8 8c-14 27-14 53-11 51 4-3 5-38 8-49v-5l-1-4c-3 1-4 12-5 17z" mask="url(#mask-letters-ri)"/>
  <path id="letter-z-body" d="M271 48c6 1 19-1 19 7 0 9-17 32-23 46-3 7-4 10-3 15 1 8 12 13 22 10 2-1 13-4 16-13 0-2 0-7-4-2-9 15-33 15-30-1s15-28 22-42c3-4 5-8 5-13-1-15-34-14-28-8l4 1z" mask="url(#mask-letter-z-body)"/>
  <path id="letter-z-bar" d="m271 77 31-11c4-1 5-2 5-4h-6l-31 10c-4 2-4 2-4 4 1 2 5 1 5 1z" mask="url(#mask-letter-z-bar)"/>
  <path id="letter-i-dot" d="m247 30-1 2-2-2c-1-1 1-3 2-1 1-1 3 0 1 1" mask="url(#mask-letter-i-dot)"/>
  <path d="M368 64c2 2 8 0 13-6 3-4 7-12 4-17-2-3-6-4-7-3-17 1-39 56-19 69 14 8 33-7 34-14 2-9-15 18-32 11-12-6-8-38 9-56 3-2 7-7 11-6l1 3c0 3-3 8-8 12-2 1-9 4-6 7" mask="url(#mask-letter-e2)"/>
  <path d="M480 7c-10 4-35 32-38 73-1 13 3 26 15 26 30 2 44-62 39-62-5-1-4 4-4 7l3 12c3 19-1 43 0 52 1 6 3 7 4 3V62c0-8 0-17-3-18-4-1-2 5-6 21-5 20-19 37-33 37-7 1-11-8-12-12-3-14 3-33 5-37 8-22 24-42 35-43 3 0 7 3 8 0 0-4-7-6-13-3z" mask="url(#mask-letter-g)"/>
  <path d="M518 60c0 14-4 29 0 43 1 2 2 5 6 5 3 1 6-1 8-4 5-6 11-25 16-36l2 1c0 13-3 27-1 36 1 2 2 5 6 4 2 0 5-1 7-7 5-12 8-23 14-34 0 17-3 32 0 38 1 3 4 1 3 0-4 0-1 2 0 0v-9l1-29c1-3 1-15-4-11-4 4-5 10-6 15-6 16-15 34-17 35-2-5-1-18 1-38 1-4 4-11-1-14-3-1-4 1-5 4-3 5-10 31-23 45-2 3-3 2-3-2-3-14 0-28 1-42 0-2 0-7-2-7-3 0-3 5-3 7z" mask="url(#mask-letters-ui)"/>
  <path d="M578 25c2 0 4-1 4-3 0-1-5 2-4 3z" mask="url(#mask-letter-i-dot2)"/>
  <path d="M609 9c-3 8 0 4-3 25l-5 44c-2 16-3 25-2 29 0 5 3 5 3 4 0 0 0-1 0 0v-4c-1-10 0-19 1-29l6-44c0-8 5-17 3-25 0-2 0-3-2-3l-1 3z" mask="url(#mask-letter-l)"/>
  <path d="M627 24c0 9 1-4 1 22-1 40-9 55-4 56 6 2 1-27 23-50l3-1c11-1-4 59 11 57 13-3 25-38 29-50 2-6 2-12-3-13-11-1-22 32-17 54 1 3 4 11 14 11 11-2 19-11 27-32 10-25 5-45 1 2v10c-3 2 4 17 3 12-1-15 2-32 8-43 8-15 18-9 22-11l1-2-4-2c-2 0-13-1-19 8-5 6-7 13-9 20-3 13-4 27-4 27l1 5c1 2 4 3 4 0V90c1-14 6-41 4-44l-3-1c-2 1-5 52-32 61-9 1-12-10-12-16-1-23 11-38 14-40l2-2v3c-6 32-27 55-28 55l-1-3c-2-18 0-29 0-41-1-5-2-14-9-14-2 0-3 0-5 2-21 17-22 58-19 50l4-40 1-14 1-22-2-9c-2 1-3 7-3 9zm125 24c-3 4-3 9-3 13l-4 32c-1 4-3 12 0 15 2 1 4-4 4-5l2-8c4-28 18-46 21-45 2 1 1 5 2 7v8c1 15-4 28-3 33v4h2l3-3c2-5 4-27 17-44 1-1 4-4 6-3l1 1 1 14v29c0 5 0 12 5 14 6 1 10-5 13-9l5-8c7-13 15-33 16-38 1-4 2-8-1-11-1-2-5-2-8 0-10 6-17 30-15 45 1 18 20 27 36 22l4-2v-2h-4c-9 1-19 2-26-5-11-10-6-29-5-34 5-17 15-23 15-23l1 1c1 2-2 21-16 45l-14 16-1-1c-3-13-1-26 0-39 0-5 0-11-2-16-4-4-9-4-14 2-7 9-18 40-19 45v3l2 1c2-2 3-15 6-37 0-8-2-16-6-17-2-1-3-1-5 1-5 2-7 7-10 12-5 13-11 27-14 41 4 4 8-36 9-40s3-9 2-13l-1-3c-2 0-2 1-2 2z" mask="url(#mask-letters-herme)"/>
  <mask id="mask-letter-b-leg">
    <path d="m29 22-5 98"/>
  </mask>
  <mask id="mask-letter-b-arch">
    <path d="M11 28S37-2 54 8c28 14-30 54-19 54 26 0 41 5 37 30-4 22-26 44-48 44-11 0-21-16-21-16"/>
  </mask>
  <mask id="mask-letter-e">
    <path d="m115 107-6 3c-2 3-18 14-25 6-26-18 13-76 25-68 12 9-11 27-15 32-6 7-12 5-12 5"/>
  </mask>
  <mask id="mask-letter-a">
    <path d="m150 120-1-57c1-4-27 69-29 49-3-54 20-54 21-55 3-3 6 3 6 3"/>
  </mask>
  <mask id="mask-letter-t-trunk">
    <path d="m179 18-4 97"/>
  </mask>
  <mask id="mask-letter-t-bar">
    <path d="m163 72 41-17"/>
  </mask>
  <mask id="mask-letters-ri">
    <path d="M209 57s-7 56-5 62c1 1 6-72 35-60 10 4 2 60 2 60"/>
  </mask>
  <mask id="mask-letter-z-body">
    <path d="M266 46s44-6 17 30c-10 14-21 36-17 41 17 19 37-8 37-8"/>
  </mask>
  <mask id="mask-letter-z-bar">
    <path d="m265 76 43-13"/>
  </mask>
  <mask id="mask-letter-i-dot">
    <path d="M243 29h6"/>
  </mask>
  <mask id="mask-letter-e2">
    <path d="M368 66s22-17 13-28c-9-10-40 49-23 65 14 12 37-12 37-12"/>
  </mask>
  <mask id="mask-letter-g">
    <path d="M492 8s-36 5-43 41c-5 23-13 49 5 54 25 8 42-59 42-59l1 77"/>
  </mask>
  <mask id="mask-letters-ui">
    <path d="M520 51s-9 53 3 56c14 2 30-53 30-53s-10 52 0 54c11 2 24-53 24-53v55"/>
  </mask>
  <mask id="mask-letter-i-dot2">
    <path d="m574 26 9-4"/>
  </mask>
  <mask id="mask-letter-l">
    <path d="m611 5-11 108"/>
  </mask>
  <mask id="mask-letters-herme">
    <path d="m629 14-5 89s10-58 26-55c20 4-4 59 7 60 14 6 45-56 30-63-7-9-33 65-8 62 22 8 38-63 38-63s-11 76-5 63c-4-66 41-64 41-64s-10 54-7 66c-2-22 15-64 26-61 12 4-8 45 0 55-2-8 18-61 27-54 4 3 2 62 2 62 34-5 41-73 35-69-20 19-23 75 1 68 7-2 21-2 21-2"/>
  </mask>
</svg>
