<svg xmlns="http://www.w3.org/2000/svg" viewBox="0 0 860 140" role="img" style="fill:currentColor;stroke:currentColor">
  <title>Beatriz e Guilherme</title>
  <defs>
    <mask id="mask-letter-b-leg"><path d="m29 22-5 98"/></mask>
    <mask id="mask-letter-b-arch"><path d="M11 28S32.534-4.07 54 8c28 14-26.515 53.129-19 54 16.955 1.966 42.705 3.584 37.616 30-.95 16.227-26.634 43.106-48.616 44-13.396.545-21-16-21-16"/></mask>
    <mask id="mask-letter-e"><path d="M82.031 85.562s3.727.922 10.267-6.54c4-5 27.286-24.19 17.464-31.23-12-8-49.475 50.762-25 68 7 8 22.533-3.371 25-6C111.69 107.74 115 107.5 115 107.5"/></mask>
    <mask id="mask-letter-a"><path d="M147.43 60.046s-4.447-6.61-7.005-3.146c-2.175 2.944-24.925 15.479-21 55 2 20 30.373-53.305 29.373-49.305l-.452 50.066L155 119"/></mask>
    <mask id="mask-letter-t-trunk"><path d="m179.2 22-4 98.089"/></mask>
    <mask id="mask-letter-t-bar"><path d="m162.576 72.577 42.848-17.154"/></mask>
    <mask id="mask-letters-ri"><path d="M210 57s-8 56-6 62c1 1 3.69-72.77 35-60 13.235-1.7 2 60 2 60"/></mask>
    <mask id="mask-letter-i-dot"><path d="M242 37h7"/></mask>
    <mask id="mask-letter-z-body"><path d="M264 46s48.619-8.773 19 30c-10 14-21 36-17 41 17 19 37-8 37-8"/></mask>
    <mask id="mask-letter-z-bar"><path d="m265 76 43-13"/></mask>
    <mask id="mask-letter-e2"><path d="M365 75s26.157-13.075 15-25c-9-8.151-39 48-22 64 14 12 37-14 37-14"/></mask>
    <mask id="mask-letter-g"><path d="M494.5 19.5s-29.62-3.883-39.7 30.5c-9.467 21.152-18.8 60-.8 65 27.619 9.694 42-62 42-62l1 80"/></mask>
    <mask id="mask-letters-ui"><path d="M518 61s-10 54 2 57c12.922-2.005 30-56 30-56s-7.313 50.457 0 56c10.846-6.318 25-54 25-54l-2 55"/></mask>
    <mask id="mask-letter-i-dot2"><path d="M571 49h8"/></mask>
    <mask id="mask-letter-l"><path d="m603 11-11 109"/></mask>
    <mask id="mask-letters-her"><path d="M617.5 23.5 611 120s11.3-65.15 27.3-62.15c13.8 3.78-1.97 59.2 7.4 60.3 8.87 5.46 39.57-58.7 29.8-62.65-14.92 3.7-28.84 60.79-8 62.1 23.09 7.67 36.7-63.6 36.7-63.6s-9.2 72-3.2 59c-5.56-66.92 33-56 33-56"/></mask>
    <mask id="mask-letters-me"><path d="m746 51-8 64s12.1-64.09 30.5-60c1.38 2.47-5 55.5-5 55.5S782.24 50.3 792 56c8.47 3.92 2 60 2 60 28.92-5.92 42.1-69.55 35.02-65.7-17.07-1.49-28.94 62.07-4.02 63.7 8.23 4.78 26 0 26 0"/></mask>
  </defs>
  <path d="M27.3 32.6C29 57 25.5 81.1 23 105.2c-.5 4.1-1.3 8.2-.3 12.2.6 2 1 2.6 2.2.4 1.6-2.8 1.1-8.3 1.4-12.3.7-24.5 9.8-85 3-82.8-1.7.3-1.9 2.7-1.9 10z"/>
  <path d="M20.5 20.4C39 2 52.7 9.1 55 11.1c5.6 5 3.6 12.6 2.2 16C53 38.5 44 46.5 36.3 55.4c-1.6 2-2.2 3-2.6 4.5-1.3 5.2 5 6 8.7 6.4C74 67.1 73.8 85 71.8 93.5c-5.7 27.2-37.4 44.8-55.9 39-4.4-1.6-6.3-5.8-8.4-9.7-2.4-5.7-3.9-1.8-3.5 1.1a14.4 14.4 0 0 0 5.1 9.2c14.7 12.3 50.8-2.7 63.3-29.9 1.4-2.6 14.6-30-15.3-40.2a41.7 41.7 0 0 0-14.5-2.3c-5.2 0-7.1 1.2-7.2 1.2C45.4 52.4 55 41.3 61 28.6 68.6 9.4 52.4 3.2 44.1 3.7a43.5 43.5 0 0 0-27.6 13.1c-4.5 4.9-4.7 11-2.2 11.3 2-.7 3.8-5 6.2-7.7z"/>
  <path d="M112.7 50c-.8-2.9-7.3-9.7-18.6 3.8a84.9 84.9 0 0 0-17.4 43c-1.8 14.8 4.8 23 14.7 23.3 11.4.5 27.4-11.6 25.8-14.3-1.6-2.7-14 9-25.7 10.1-12.8.7-15.9-18.5-6-41.2 8.6-19.8 21.1-25.4 23.3-25 2.3.8-.7 7.8-4.6 13.4-6.5 11-20.4 18.4-24.7 24.4 5.5 5.3 37.8-25.4 33.2-37.6z"/>
  <path d="M147.2 56.8c-1.8-1.9-5-2.2-7.3-1.6-7.1 2-11.2 10.2-14.4 16.8a108.3 108.3 0 0 0-8 22.2c-1.4 5.4-2.8 11-1.5 16.4 2 7 9.2 5 11.3 2.2 20.6-27 18.7-70.4 18.6-7.5.1 3.4.2 5 .7 7.2 1.8 8.7 8.8 6.4 8.3 3.4-.2-.7-1.2-1.2-1.8-1.3-1.4 0-1.2 3-2.2 1-.2-1-.4-1.7-.6-3.8a123 123 0 0 1-.6-27.6c.3-4.5.7-7 1-11 .3-4.1 3-14.3-2.2-13.2-5.2 1-5.3 13.2-16 36.4-3.2 6.4-9 16.2-11.9 16.2-2.8 0-1.6-27.6 13.5-46.7 2.3-2.6 5.2-7.1 9.2-6 .8.1 7.1 1.9 5.2.3.1-1-.6-2.7-1.3-3.4z"/>
  <path d="M176.9 39.6c.5 28-3.8 65-3 74.1.1 3 1.4 5.2 1.8 5.5 1.4 1 1.7-4.5 1.8-5.6-.7-10.6-.3-21.1.3-31.7 1-14 1.4-28.1 2.8-42.1.5-4.7 1.6-9.5.5-14.2-.7-3.2-2.3-2.2-2.5-2.1-2.7 3.2-2 11.1-1.7 16.1z"/>
  <path d="M168.5 73c10.2-2 19.1-7.2 28.2-11.9 8.1-4.5 7.5-5.2 6.1-6-4.7-.4-9.3 2.6-13.4 4.5-21.4 9.5-13.3 4.9-22.3 8.2-3.9 1.7-4.3 2.4-3.1 4.6 1.5 2 4.3.7 4.5.6z"/>
  <path d="M206.1 75c-2 24-4.2 32.2-4.2 37.5.1 2 .4 2.7 1 3.4 5.6 6.7 1.8-17 11.2-41.4 1.4-3.3 2.4-4.8 4-7 3.5-6.8 9.2-8.9 16.6-7.6 2.3 1 5.3.5 7.3 2 .4.7.4 1 .5 2.5v5c.3 16.3-2.9 35.7-2.3 43 .1 2 0 5.2 2.2 6.1 1.2.4 2.8-1.8 2-2.4-5.1-1-.5 5.8 0-3.9 0-36.4 7-43.8.6-52.4-2.5-3.3-13.8-7-21.7-2.9a22.7 22.7 0 0 0-8.6 8.3c-13.3 27.3-13.9 53.2-10.4 50.7 4-3.3 5-37.4 7.8-48.8.4-2.8.3-3.8.2-5.5 0-1.7 0-3.1-1.6-3.3-2.3.2-4.2 12-4.6 16.7z"/>
  <path d="M247.2 38s-1.3 1.7-1.8 1.7c-.4-.1-1.5-2-1.5-2-1-1.1.8-2.6 1.8-1.4 1.2-1 2.7.8 1.5 1.8"/>
  <path d="M271.1 48.4c5.7.2 18.7-1.7 19.3 6.5-.6 9.2-17.5 32-23.7 46.4-2.8 6.6-3.4 9.7-2.6 14.2 1.3 8.8 11.7 13 22.1 10 1.9-.4 12.8-3.2 15.4-12.5.4-1.7.3-6.8-3.5-1.7-8.8 14.7-32.6 15-30-1.6 3.3-15.8 14.5-28 22.1-41.8 2.6-4.2 4.6-7.7 4.4-13-.5-15.1-33.1-14.1-28-7.9 1 1.3 3 1.3 4.5 1.4z"/>
  <path d="M271.1 77c8.6-2.7 21-7.1 31.3-10.9 4-1.3 5-2 4.6-3.7-.3-1-3.8-.6-5.7-.3-5.9 1-26 7.9-31.7 9.7-4 1.8-4 2.6-4 3.8 1.4 2.7 5 1.6 5.5 1.4z"/>
  <path d="M367.6 74.2c1.7 1.2 7.6-.7 12.5-6.6 3.9-4.3 7.4-11.5 4.5-16.6-1.7-3.6-5.6-3.7-7.1-3.7-16.6 1.7-39.3 56.3-18.7 69.4 13.6 7.8 32.4-6.7 33.8-13.5 1.8-9-15.2 17.4-32 10.1-11.6-5.6-8-37 9.3-55.9 2.6-2 6.4-6.9 10.3-5.9 1.2.7 1.4 2.3 1.3 3.4-.3 3-3.1 8.4-8.2 12-2 1.3-8.6 4.4-5.7 7.3"/>
  <path d="M480 17.9c-10 4-34.8 32.1-38.5 73.6-1 12.5 3.6 25.8 15.6 26C487 118.9 501 54.9 495.7 55c-4.7-.4-4 4.7-3.7 6.9 1 4 2 8 2.6 12 3.2 20-.7 43 .5 52.9.7 5.6 3 6.7 3.7 3 .3-1.2 1.3-39 .5-56.5-.4-8.4-.7-16.9-3.6-18.1-3.7-1.2-2 5-5.9 21-5 20-18.8 37-32.6 37-7.5.8-11.3-7.4-12-11.6-3.5-14.3 3-33 4.7-37.3 7.8-22 24.1-42.1 35.3-43 2.8.2 6.9 3 7.4 0 0-3.8-6.8-6.1-12.6-3.4z"/>
  <path d="M514.2 69.7c1 14-3.1 29.2.5 43 .6 2 2.2 5.6 5.7 5.9 3.1.5 6.3-1.8 8.4-4.5 4.4-5.9 11-24.9 16.3-36.2l1.4 1.3c0 12.4-3.3 27.3-.5 35.8.8 2.1 2 4.8 5.7 4.3 1.9-.5 4.5-1.5 7.4-7.4 4.5-11.4 7.5-23.3 13-34.1.3 17.7-2.6 32 .6 38.7 1 2.4 3.6.2 2.9-.1-4-.6-1.4 2-.4-.3l.2-9c0-26.8 1.3-17.9 1.6-29.1 1-2.8.4-15.1-4.6-10.5-3.4 4-4.4 9.3-6.1 14.2-5.4 16.7-15 34.8-16.3 35-2-5-1.3-17.4 1-37.1.5-4.5 3.4-12-1.8-14.6-2.3-.7-3.1 1.5-4.4 3.8-3.1 5.4-9.8 31-22.7 45.7-2.2 2.6-3 1.2-3.8-2.7-2.2-14 .2-27.8 1.3-41.6 0-2.3-.2-7-2-7-2.5-.1-3.2 5.3-3.4 6.5z"/>
  <path d="M573.2 50.1c1.2.3 3.6-.7 3.6-2.2.1-1.3-4.7 2-3.6 2.2z"/>
  <path d="M600.8 16.3c-2.8 8 0 4-2.4 25.1-1.6 14.7-3.5 29.2-5.4 43.8-2.1 16.1-2.8 25.6-2.1 29.8.7 4.6 3.1 5 3.8 4 0-.2-.6-1-.6-.5.2-1.1.2-2.5.2-3.8-.8-9.7 0-19.5 1-29.2 1.8-14.6 3.8-29.1 6-43.7.3-8.4 4.5-16.8 3.2-25.2-.3-1.5-.5-3-2-2.5-1 .3-1.3.8-1.7 2.2z"/>
  <path d="M614.7 33.6c0 9.4.9-3.2.4 22-1.1 40.2-8.3 61.2-3.5 62.5 6.3 2 .8-33.6 22.4-55.8 1.5-1.3 2.1-1.6 3.1-1.7 11.4-1-3.8 59.7 11.2 57.7 12.7-3 25.3-38.2 29.2-50.8 1.5-5.7 1.9-11.7-3-12.5-11.3-1.4-22 32.3-17.4 54.1 1 3 4.5 11 14.4 10.6 10.8-1.6 18.6-11 27-31.8 9.7-25 5-44.5 1.1 2l-.8 9.8c-3 2.4 4.1 17.3 3.8 11.9a87.5 87.5 0 0 1 7.6-43c7.8-14.7 18.6-8.3 22.4-10.8.7-.5 1-1.4.3-2-.6-.9-1.8-1.4-3.2-1.7-2.4-.7-13-1.2-19.7 7.4-5 6.5-7 13.1-8.8 20.6-3 13-3.8 26.5-3.8 27.1a10 10 0 0 0 1.2 4.8c.8 1.7 3.3 2.8 3.9 0 1-4.3-.1-9.6.1-14 .7-13.9 5.8-40.6 3.5-44.2-1.4-1.3-1.7-1-2.5-.7-2.8 1.3-5.2 51.7-32.7 60.4-8.4 1.8-11.3-9.5-11.6-15.2-1.1-23.3 11-38 13.6-40.9 1-1.2 1.4-1.9 2.3-1.5 0 .7 0 1.2-.3 3-5.7 32-26.6 55-27.9 55-1 0-1-1.4-1.2-2.8-1.5-17.8.9-29.5.2-40.9-.3-5.7-1.7-14.2-9-14.4-2 0-3 .3-5 1.7-20.2 17-17.3 58.8-18.9 50.3 2-13.2 2.5-26.7 3.8-40l1-14c1.8-22.6 1.8-20.6 1.8-22.2 0-4-1-9-2.7-8.3-2 1-2.3 6.3-2.3 8.3z"/>
  <path d="M744.2 54.2c-2.2 4-2 8.6-2.4 13a335.3 335.3 0 0 1-4.5 31.3c-.3 4-3 12.8 0 15.4 2.8 1 4.5-4.2 4.8-5.2.7-2.5.5-4.3 1.3-8 4.4-27.7 18.7-46 21.4-44.5 1.7 1 1.3 4.6 1.5 6.7.2 2.6.5 4.4.6 8 .4 14.8-4 28-3.7 33.5 0 1.8 0 2.5.6 3.2.6.8 1.2 1 2 .5 1-.5 1.8-1 2.6-3 2.5-5.4 3.9-26.8 17.7-43.7 1-1.2 3.8-4.3 5.2-3.9.6.3 1 .3 1.4 1.8 0 .5 1.2 10.2 1.4 14 0 29-1.2 19.6-1 29.1 0 4.2.8 11.7 5.8 13.1 5.9 1.1 10-4.7 13-8.9 1.9-2.8 2.8-4.6 4.8-8 7-12.2 15.1-32.7 16.4-37.8.7-3.6 1.2-7.7-1-10.6-1.6-2.2-5.2-2.7-8.6-.7-9.5 6.2-17 30.2-15 45.4 1.6 18.1 20 27.5 36.6 22 2-.9 3.2-1.6 3.9-2.3.7-.8.5-1.2-.4-1.5-1-.3-2.2 0-4.2 0-9.1.7-18.5 1.6-26-4.9-11.2-10.6-6.2-29.2-4.6-34.2 5-16.7 14.9-22.6 14.9-22.6.7-.3.9-.2 1.2.4.9 1.8-2 21.6-16.5 44.7a61.8 61.8 0 0 1-14 16.2c-.5 0-.7 0-1-1-2.7-12.5-.8-25.9-.2-38.6.2-5.4.6-10.8-2-15.8-3-4.8-8.3-4.3-13.3 1.5-7.2 9.1-18.7 39.8-19.4 45.1-.3 2 0 2.7.5 3.5.4.8.9.8 1.4.4 2-1.7 3.6-15.3 5.8-36.8.7-8.4-1-16.3-6-17.4-1.5-.3-2.6-.2-4.5 1-4.8 2.6-7.2 7.8-9.6 12.4a224 224 0 0 0-14.4 40.5c3.8 4.8 7.6-35.7 9.3-39.6 1-4.3 2.3-8.5 1.7-13 0-1.4 0-3.2-1.3-3.1-1.3 0-1.6 1-2.2 2.4z"/>
</svg>
