<svg xmlns="http://www.w3.org/2000/svg" viewBox="169.6 229.2 861.8 140.1" style="stroke:#000;fill:#000">
  <path d="M196.9 251.6c-.5.7-.6 1.2-.8 3.1-.2 2-.2 3.2-.2 6.5.1 3.3.5 5.5.5 10 0 4.6 0 7.3-.3 12.6-.2 5.3-.4 8.3-.9 13.8-.4 5.5-.7 8.4-1.3 13.6l-1.3 12.3-1.1 10.3c-.4 3.6-.8 5.3-.8 7.7-.1 2.5.2 3.2.5 4.5.3 1.2.4 1.4.7 1.8.4.4.6.3 1 0l.6-1.8c.3-1.2.7-1.8 1-4.2.2-2.4 0-4 .3-7.7.1-3.6.3-5.8.6-10.4l1-12.3 1.4-13.6L199 284l.9-12.7.6-10.2c0-3.3-.2-4.6-.6-6.6-.3-2-.7-2.5-1.3-3-.7-.6-1.2-.5-1.7.1"/>
  <path d="M183.8 256.3c.6-.2.7-.6 1.2-1.4.6-.7.7-1.2 1.6-2.4.8-1.2 1.1-2 2.5-3.5 1.5-1.5 2.4-2.4 4.5-4 2-1.7 3.3-2.7 5.8-4.2a28.5 28.5 0 0 1 13.5-4c2.6-.2 4 0 6 .5 2.2.6 3.2 1.1 4.7 2.4 1.5 1.3 2.2 2 2.9 3.9.7 1.8.8 3 .7 5.3-.1 2.5-.3 4-1.4 6.8a65.1 65.1 0 0 1-9.5 15.7c-2.3 3-3.8 4.5-6.1 7-2.3 2.6-3.7 3.6-5.3 5.6-1.6 2-2.2 2.9-2.6 4.5-.5 1.5-.3 2.2.4 3.3.7 1 1.4 1.5 3 2.1 1.7.7 3 .7 5.3 1 2.3.3 3.8 0 6.5.3s4.3.3 7 1a22.2 22.2 0 0 1 11.4 6.3c1.7 1.9 2.4 3 3.4 5.4a23.7 23.7 0 0 1 1.1 14.2 43.2 43.2 0 0 1-7.2 16.3A50.6 50.6 0 0 1 220 352a48 48 0 0 1-15.6 8.1A36.2 36.2 0 0 1 190 362c-2.4-.2-3.6-.4-5.5-1-1.9-.8-2.7-1.3-4-2.5-1.3-1.2-1.7-2.2-2.6-3.6-.9-1.4-1.1-2.3-1.8-3.5-.6-1.2-.8-2.1-1.4-2.6-.7-.4-1.3-.4-1.7.3-.4.8-.6 1.8-.4 3.4a14.4 14.4 0 0 0 5.1 9.2c1.8 1.5 3 2.2 5.4 3a27.2 27.2 0 0 0 14.2 1 50.4 50.4 0 0 0 16.4-5.9 55 55 0 0 0 8.1-5.1c3.2-2.4 4.8-3.7 7.6-6.6a53.7 53.7 0 0 0 11.6-16.3 36.3 36.3 0 0 0 4-17.6 21 21 0 0 0-1.8-8c-1.2-2.9-2.1-4.3-4.2-6.6-2-2.3-3.4-3.3-6-5-2.7-1.5-4.4-2-7.3-3a41.7 41.7 0 0 0-14.5-2.3c-2.4 0-3.6.2-5 .5-1.5.2-2 .7-2.2.7-.3 0-.1 0 .7-.7.8-.8 1.6-1.3 3.3-3 1.7-1.8 2.8-3.1 5-5.8 2.3-2.6 3.8-4.2 6.2-7.3 2.4-3.1 3.9-4.9 6-8.2 2-3.3 3.1-5 4.4-8.3 1.3-3.3 1.9-5 2-8 .1-3.1-.3-4.7-1.4-7.2a13 13 0 0 0-4-5.4 19.4 19.4 0 0 0-13.5-4.3 39.4 39.4 0 0 0-15.6 4.4 40.4 40.4 0 0 0-12 8.7c-1.7 1.8-2.3 3-3.1 4.6a8 8 0 0 0-.9 3.8c0 1.2.3 1.8.8 2.3.5.5 1.2.5 1.8.2M251 316.1c.5.3 1 .4 2.2 0 1.3-.2 2.1-.4 3.8-1.4a53 53 0 0 0 10-8.4c2.1-2.2 3.2-3.5 5.2-5.9 1.9-2.4 3-3.6 4.5-6a34.6 34.6 0 0 0 5-11.3c.2-2 .2-3-.4-4.6a5.1 5.1 0 0 0-2.5-3.1 6.2 6.2 0 0 0-4.5-1c-2 .3-3.4.6-5.7 2.2-2.3 1.5-3.5 2.9-5.9 5.8a79.3 79.3 0 0 0-11.4 19.7 77.9 77.9 0 0 0-6 23.2c-.5 4.2-.5 6.3.1 9.6.6 3.5 1.2 5 2.8 7.4a12 12 0 0 0 5.1 4.6c2.4 1.3 3.9 1.7 6.7 1.8a19 19 0 0 0 7.6-1c3-1 5-2 8-3.7 2.9-1.6 4.6-2.7 6.7-4.5 2.1-1.8 3.2-3.4 3.8-4.6.5-1.2.1-1.6-1.1-1.4-1.3.2-2.9 1.2-5.2 2.5-2.3 1.3-3.8 2.5-6.5 4-2.7 1.4-4.4 2.4-7.1 3.3-2.6.9-3.9 1.1-6.1 1.2-2.3 0-3.3 0-5-1a7.7 7.7 0 0 1-3.8-3.2 14 14 0 0 1-2.5-6 49.2 49.2 0 0 1 1.2-19.6c1.2-4.4 2.1-7 4-11.4a61.8 61.8 0 0 1 11.8-18.1c2.4-2.5 3.8-3.2 5.7-4.5 1.9-1.3 2.6-1.7 3.7-2.2 1.2-.4 1.6-.4 2.2-.3.5.2.7.4.8 1.2 0 .8 0 1.4-.4 2.8a47.7 47.7 0 0 1-5 9.5 55.1 55.1 0 0 1-9.3 11c-2 1.8-3.3 2.7-5.2 4.2l-4.3 3.3a21 21 0 0 0-2.8 2.6c-.7.9-1 1.1-1 1.8-.1.7.1 1.2.7 1.5"/>
  <path d="M316.8 287.6c0-.8-.3-1.5-1-2.2a5.3 5.3 0 0 0-3-1.6 7.9 7.9 0 0 0-4.3 0c-1.8.5-2.8.9-4.7 2.5-2 1.6-3 2.7-4.9 5.6-2 2.8-2.9 4.8-4.8 8.7a108.3 108.3 0 0 0-8 22.2c-1 4.2-1.6 6.3-1.9 9.6a16 16 0 0 0 .4 6.8c.6 2.2 1.3 3 2.6 3.9 1.3.9 2.3 1 4 .7a8 8 0 0 0 4.7-2.4c1.8-1.7 2.6-3 4.3-6 1.6-3 2.4-5 4-8.9l4.4-10.8 4.1-11c1.6-4 2.7-6 3.7-8.9 1-2.9 1.3-4.3 1.4-5.6.1-1.4-.4-1.7-.9-1.1-.5.6-1.2 1.5-1.6 4-.4 2.5-.3 4.6-.4 8.5l-.1 11-.3 11.5v9.8c.1 3.4.2 4.9.7 7.2.5 2.3 1 3.2 1.9 4.4 1 1.3 1.7 1.4 2.8 1.6 1 .2 2 0 2.7-.6.7-.5 1-1.4.9-2-.2-.7-1.2-1.2-1.8-1.3-.6 0-.8.5-1.1.9-.4.3-.2.8-.4.8s-.4.2-.7-.7c-.2-1-.4-1.7-.6-3.8a123 123 0 0 1-.6-27.6c.3-4.5.7-7 1-11 .4-3.9.9-5.9.7-8.5-.2-2.6-.8-3.7-1.7-4.6-.8-.8-1.6-.8-2.7.4a15 15 0 0 0-3 5.3c-1.2 3-1.6 5.1-3 9.2A221.7 221.7 0 0 1 301 325c-1.8 3.7-3 5.4-4.7 8-1.7 2.7-2.5 3.6-3.7 5.2-1.3 1.6-1.6 2-2.4 2.6-.7.6-1 .8-1.4.3-.5-.4-.7-.8-.8-2.5-.2-1.7-.3-2.9 0-5.9a78.3 78.3 0 0 1 9.4-30.5c2-3.6 3.4-5.3 5.3-7.7 1.9-2.5 2.8-3.3 4.3-4.6 1.4-1.3 1.9-1.5 2.9-1.8 1-.3 1.3 0 2 .3.8.2 1 .5 1.8.6.7.2 1.2.5 1.9.2.6-.3 1.2-.8 1.3-1.6M347.1 247.6c-.5.3-.7.4-1.2 1.8-.4 1.4-1 2.3-1 5.1-.2 2.9.3 4.8.4 9.1a317.8 317.8 0 0 1-.7 27.4l-.8 14.8-.8 13.3c-.3 4.9-.5 7.1-.6 10.9-.2 3.7-.3 5.4-.1 7.7.1 2.4.6 3 1 4 .3 1.2.5 1.2.8 1.5.3.2.5.2.8-.1.2-.3.3-.4.5-1.5.2-1 .4-1.7.5-4 0-2.3-.3-4-.3-7.6v-10.8c.1-4.8.3-7.7.6-13.3l.9-14.7.9-14.6c.4-5.5.5-8.4 1-12.8.4-4.4 1-6.3 1-9 .2-3-.2-3.8-.5-5.2-.3-1.4-.5-1.5-1-1.9-.4-.4-.9-.5-1.4-.1"/>
  <path d="M332.1 300.8c.4.5.7.6 1.7.8 1 .2 1.6.3 3.3 0a64.4 64.4 0 0017.1-6.2c2.4-1.1 3.7-1.8 5.9-3l5.2-2.7c1.8-1 2.7-1.5 4-2.4 1.4-.9 2.3-1.4 2.7-2 .5-.8.3-1.4-.6-1.6-.8-.3-2-.1-3.5.3-1.7.4-2.6.9-4.6 1.7-2 .8-3 1.4-5.3 2.5l-5.9 2.6c-2.4 1-3.7 1.6-6 2.4-2.4.9-3.7 1.2-5.8 1.8-2 .6-3 .8-4.6 1.4-1.4.6-2 .9-2.8 1.5-.8.5-1 .7-1.1 1.3-.2.6 0 1.1.3 1.6M378.8 287c-.7.4-1 .8-1.7 2.4-.7 1.6-1.2 2.7-1.7 5.5-.5 2.9-.3 4.9-.7 8.7a475.3 475.3 0 01-2.2 21.3c-.6 4-1 6.2-1.3 9.4-.4 3.3-.7 4.7-.7 6.8.1 2 .4 2.7 1 3.4.5.6 1.1.7 2-.1.7-.8 1.4-1.6 2-3.8.4-2.3.3-4 .6-7.5.3-3.4.3-5.8 1-9.9a82.7 82.7 0 015.6-20.1c1.4-3.3 2.4-4.8 3.9-7.1a24 24 0 013.6-4.7c1.4-1.4 2.1-1.9 3.4-2.6 1.3-.7 2-.7 3.2-1 1.3 0 2 0 3.2.2l3.3.6 3.1.7 2.7.5c.8.3 1 .2 1.5.8.4.7.4 1 .5 2.5l-.1 5v7.5c-.1 3.4-.3 5.5-.6 9.4l-.7 9.8-.8 9c-.2 3.2-.3 4.8-.1 7.2 0 2.3.2 3.3.7 4.6.4 1.2.8 1.4 1.5 1.6.6.2 1.3-.3 1.7-.8.4-.4.7-1.3.2-1.6-.5-.3-2.2-.3-2.8 0-.5.3-.1 1 .2 1.4.3.4.9.8 1.3.6.5-.2.7-.3 1-1.5.2-1.2.2-2.1.3-4.4v-7l.5-8.8c.3-3.7.5-6 1-9.8.3-3.8.7-6 1-9.3.4-3.5.8-5.2.8-7.9a18 18 0 00-.7-5.8c-.5-2-1-2.6-1.9-3.8-1-1.3-1.6-1.6-2.8-2.3-1.3-.7-2-.8-3.3-1.2-1.3-.4-2-.6-3.4-.8-1.4-.3-2.2-.5-3.8-.5-1.6 0-2.5 0-4.2.4-1.7.4-2.5.6-4.2 1.5a22.7 22.7 0 00-8.6 8.3 89.9 89.9 0 00-7.2 17.7c-1.2 4.3-1.8 6.8-2.7 11-1 4.2-1.5 6.5-2.1 10-.7 3.5-1 5.1-1 7.4 0 2.4.4 3.2.9 4.1.5 1 1 1 1.7.5.6-.5 1-1.1 1.4-3 .4-2 .4-3.5.8-6.7l.8-9.4a293.7 293.7 0 013-21.3l1.8-8.4c.4-2.8.3-3.8.2-5.5 0-1.7 0-2.3-.5-2.9-.4-.6-1-.8-1.6-.4M416 259l-1.8093 1.5182-1.5182-1.8093a1.181 1.181 90 011.8093-1.5182 1.181 1.181 90 011.5182 1.8093M435 275.5c.4.6.8.7 1.7 1 .9.3 1.5.4 3 .5h8.7a23.2 23.2 0 017.8 1.9c1.2.6 1.7 1 2.2 1.8.6 1 .7 1.4.6 2.8-.1 1.5-.4 2.2-1.2 4.4a118.5 118.5 0 01-7.1 14.7c-2 3.5-3.4 5.5-5.6 9.2-2.2 3.7-3.5 5.7-5.4 9.3-2 3.6-3 5.5-4.4 8.8-1.4 3.3-2 4.9-2.6 7.7-.5 2.9-.4 4.2 0 6.5a11 11 0 002.2 5.1c1.1 1.7 2 2.5 3.8 3.5 1.8 1.1 2.9 1.5 5 2 2.1.4 3.3.4 5.5.3a24 24 0 005.6-.9c2.2-.5 3.3-.9 5.3-1.9 2-.9 3-1.4 4.6-2.8 1.7-1.3 2.6-2.2 3.7-3.8 1-1.6 1.4-2.6 1.8-4 .3-1.5.2-2.5-.1-3.2-.4-.7-1-.8-1.6-.5-.7.3-1 1-1.8 2-.7 1-1 1.8-2 3s-1.5 2-2.8 3a21.4 21.4 0 01-8.2 3.7 24.6 24.6 0 01-13-.5c-1.4-.6-2-1-2.9-2a5.9 5.9 0 01-1.4-3.5c-.3-1.8-.1-2.8.3-5.3a64.6 64.6 0 015.9-15.6c1.9-3.5 3.2-5.5 5.4-9.2 2.2-3.6 3.6-5.6 5.8-9 2.1-3.4 3.4-5 5-8 1.8-3 2.7-4.4 3.5-7 .9-2.6 1-3.8.9-6a9 9 0 00-1.5-4.7 9.4 9.4 0 00-3.1-3.4 14.6 14.6 0 00-4.5-2.3 32.3 32.3 0 00-14.8-1.6c-1.4.3-2 .6-3 1-.8.5-1.1.7-1.4 1.3-.2.6-.2 1.2.2 1.7"/>
  <path d="M434.4 305c.5.5.7.6 1.8.7 1 .1 1.7.2 3.5-.1 1.8-.3 3-.7 5.4-1.4 2.4-.8 3.8-1.5 6.6-2.5l7-2.7 7-2.4 5.3-1.9c1.8-.6 2.4-.8 3.3-1.3 1-.4 1-.7 1.4-1 .3-.3 0-.4.1-.6v-.3c0-.2.1-.4-.3-.6-.5-.3-.8-.5-1.9-.6-1 0-1.8 0-3.7.4-1.8.4-3.2.6-5.7 1.3l-7 2.4-7.2 2.3-6.7 2c-2.4.7-3.5 1-5.1 1.7-1.6.7-2.2 1-3 1.7-.8.6-1 .8-1.1 1.3-.2.6 0 1.2.3 1.6M536.6 293c.6.4 1.2.4 2.3.2 1-.2 1.8-.4 3.2-1a25 25 0 0 0 7-5.8 24.4 24.4 0 0 0 4.9-8.3c.5-1.7.7-2.7.6-4.3 0-1.7-.2-2.6-1-4a6 6 0 0 0-2.7-2.8c-1.5-.8-2.5-1-4.4-.9-2 .2-3.2.5-5.4 2a21.6 21.6 0 0 0-5.6 5.2 77.8 77.8 0 0 0-10.4 18.6 75.3 75.3 0 0 0-5.5 22.2c-.3 4.1-.3 6.1.4 9.4.6 3.4 1.3 4.9 2.8 7.3 1.6 2.4 2.8 3.3 5 4.7 2.3 1.3 3.7 1.7 6.4 2a25.3 25.3 0 0 0 14-2.7 30.5 30.5 0 0 0 11.2-8.8c1.4-1.7 2-3 2.2-4 .2-1-.2-1.3-1.2-1-1 .1-2 1-3.7 2.2l-4.9 3.5c-2.1 1.4-3.4 2.5-5.7 3.7a23.6 23.6 0 0 1-11.5 2.9 9.8 9.8 0 0 1-4.9-1.2 8.6 8.6 0 0 1-3.7-3.4c-1.3-1.8-1.9-3-2.5-5.9a46 46 0 0 1 .9-18.9c1-4.2 2-6.7 3.7-10.8a57.6 57.6 0 0 1 10.8-16.9c2.1-2.2 3.3-3 5-4.1a10 10 0 0 1 3.3-1.8c1-.4 1.4-.2 2 0 .6.3.8.6 1 1.2.3.7.4 1.2.3 2.2a9 9 0 0 1-.8 2.9 21.6 21.6 0 0 1-7.4 9c-1.2.9-2 1.2-3 2-1 .7-1.7 1-2.3 1.8-.8.8-1.1 1.2-1.2 1.9 0 .7.2 1.3.8 1.7M661.2 238.5c0-.7-.1-1.3-.8-2a5.5 5.5 0 0 0-2.6-1.9 12.4 12.4 0 0 0-9.2.5c-2.2.9-3.4 1.4-5.9 3.4a80.4 80.4 0 0 0-13.4 16 115.8 115.8 0 0 0-19.2 54.2 40 40 0 0 0 .6 10.8c.7 3.9 1.2 5.6 2.9 8.2 1.6 2.7 2.9 3.7 5.3 5a13 13 0 0 0 6.8 2c2.9.2 4.5 0 7.5-1a36.4 36.4 0 0 0 14.2-10.7 70.9 70.9 0 0 0 10.7-18.3 91.3 91.3 0 0 0 6.6-25.9c.2-2.3 0-3.1-.3-4.4-.3-1.3-.6-1.7-1.2-2-.6-.3-1.2-.1-1.8.4-.6.5-1 1.1-1.1 2.3-.2 1.3 0 2.1.3 4l1.3 5.2c.5 2.5.9 3.8 1.3 6.8a98.5 98.5 0 0 1 1.2 17v9l-.4 8.5-.5 7.4v6.2c0 2.2 0 3.2.2 4.8.2 1.6.4 2.4.8 3.4s.6 1.3 1.1 1.6c.5.3.9.2 1.2-.2.4-.4.4-.8.6-1.8.2-1 .2-1.6.3-3.1v-4.7l.2-6v-7.5l.2-8.5.2-9V299l-.4-8.5a90.5 90.5 0 0 0-1.6-12.7c-.4-1.9-.6-2.6-1.2-3.6s-1-1.3-1.7-1.6c-.6-.3-1-.3-1.5 0-.4.4-.4.7-.6 1.8l-.4 4c-.3 2-.3 3.5-.8 6.5s-.8 5-1.7 8.6a68.2 68.2 0 0 1-13.7 27 31.2 31.2 0 0 1-13 8.9c-2.4.8-3.7 1.1-5.9 1.1a9 9 0 0 1-5.1-1 9.2 9.2 0 0 1-4-3.8 16.8 16.8 0 0 1-3-6.9c-.8-3.4-1-5.5-1-10.2a92.3 92.3 0 0 1 5.8-27.1 100.6 100.6 0 0 1 20.5-34.2c2.8-2.7 4.3-3.6 6.6-5.2s3.2-2 4.8-2.8c1.7-.7 2.3-.7 3.4-.7 1.2 0 1.6.4 2.4.6l2 .7c.7.1 1.1.3 1.8 0 .6-.3 1-.8 1.2-1.5M688.9 282c-.6.3-.9.4-1.4 1.7-.6 1.2-1 2-1.4 4.4-.3 2.4-.2 4.1-.3 7.6v9.9l-.2 10.1c0 3.8-.3 5.7 0 8.8.2 3 .4 4.5 1 6.6.7 2.2 1.2 3 2.3 4.1a4.8 4.8 0 0 0 3.4 1.8 6 6 0 0 0 4.1-.8c1.7-1 2.7-1.6 4.3-3.7 1.6-2.1 2.3-3.6 3.8-6.8 1.6-3.2 2.4-5.3 4-9.2l4.3-10.3c1.7-4 2.6-6.4 4.2-9.9 1.5-3.4 2.6-5 3.5-7.4a12 12 0 0 0 1-4.3c0-1-.4-1-1-.2-.5 1-1.2 2-1.6 4.6-.4 2.6-.3 4.7-.5 8.6l-.6 10.6-.6 10.5c-.2 3.8-.5 5.7-.3 8.7.1 3 .4 4.2 1 6 .8 2 1.2 2.7 2.3 3.5 1.2.9 2 1 3.4.8 1.4-.3 2.3-.6 3.8-2.1s2.3-2.6 3.6-5.3c1.4-2.8 1.8-4.7 3-8.4l3.7-10.3 3.8-10.3c1.5-3.8 2.5-5.7 3.5-8.5s1.5-4.2 1.7-5.6c.2-1.4-.1-1.9-.5-1.5-.4.3-1 1-1.5 3.2-.4 2-.4 3.8-.6 7.3-.1 3.5 0 6-.2 10 0 4-.2 6.5-.4 10.4-.1 3.8-.4 5.8-.4 8.8 0 3 .2 4.5.5 6.4.4 1.9.6 2.3 1 3.1.5.9.6 1 1.1 1.1.5.2 1 0 1.4-.3.4-.2.8-.7.4-.9-.4-.1-2 0-2.4.1-.4.2.2.5.5.6.3 0 .7.2 1 0 .3-.2.4-.2.5-1l.1-3 .1-6v-8.8c.1-3.8.3-6.2.6-10.3.4-4 .9-6.4 1-10 .3-3.4.6-5.2.2-7.5-.4-2.3-1-3.2-2-3.8-.9-.6-1.6-.5-2.8.8a15.8 15.8 0 0 0-3.1 5.4c-1.2 2.8-1.6 5-3 8.8l-3.8 10.3c-1.5 4-2.4 6.4-4 10-1.6 3.5-2.7 5-4 7.6l-2.6 4.8c-.7 1.5-.8 1.9-1.2 2.4-.4.4-.4.5-.7 0-.2-.5-.4-1-.6-2.6-.2-1.6-.2-2.7-.3-5.4-.1-2.8-.3-4.6-.2-8.3.1-3.8.3-6.2.7-10.4.5-4.1 1-6.7 1.4-10.5.5-3.8 1.2-5.8 1.2-8.6s-.6-4-1.4-5.3c-.8-1.2-1.5-1.3-2.7-.7-1.2.6-2 1.5-3.3 3.8-1.3 2.3-1.6 4.2-3 7.7l-4 10c-1.7 4-2.7 6.4-4.5 10.1-1.8 3.8-2.8 5.7-4.5 8.6-1.8 2.9-2.7 4-4 5.8-1.4 2-1.8 2.5-2.7 3.5-.8 1-1 1.2-1.6 1.3-.6 0-.8 0-1.2-.8-.4-.7-.6-1.3-1-3.2l-.5-6c-.2-2.9-.4-4.8-.4-8.4 0-3.8.2-6.1.5-10 .2-4 .4-6.4.8-9.8.3-3.4.8-5 .9-7.4.1-2.4-.2-3.2-.4-4.4-.2-1.3-.3-1.5-.7-1.9-.4-.4-1-.6-1.5-.3M750 252c.5-.5.6-1 .5-1.2-.2-.2-.7-.2-1.4.1-.6.3-1.3.7-1.8 1.2s-.7 1-.6 1.2c.1.2.6.2 1.3 0 .6-.3 1.5-.8 2-1.3M778.2 235c-.5.5-.7.8-1.1 2.2-.5 1.4-1 2.1-1.2 4.8-.3 2.7 0 4.4-.2 8.5-.2 4-.4 6.6-1 11.8l-1.6 14.2-1.9 15-1.9 14.6-1.5 12.8-.9 10a32 32 0 0 0 .3 7c.3 2 .7 2.6 1.3 3.4.5 1 1 1 1.5 1a1 1 0 0 0 1-.5c0-.3-.5-.6-.6-.7v.3s.2 0 .2-.8v-3c-.1-2-.3-3.3-.3-6.6s0-5.4.2-9.9c.3-4.5.6-7.2 1.2-12.7l1.8-14.6 2-15 2.2-14.1 1.8-11.8c.7-4 1.3-5.7 1.5-8.4.3-2.7 0-3.6-.2-5-.3-1.5-.5-1.9-1-2.4-.5-.4-1-.4-1.6 0M797.5 244.6c-.5.5-.6.7-.9 2.3-.3 1.5-.6 2.5-.6 5.4 0 3 .5 5 .5 9.4.1 4.4 0 7.3-.1 12.6a312.2 312.2 0 0 1-2 27.5l-1.4 11.7-1.5 9a21 21 0 0 0 0 5.8c.2 1.7.5 2.2 1.3 2.4.7.2 1.4 0 2.3-1.4.9-1.3 1.4-2.5 2-5.4.8-2.9.6-5 1.5-9a85.7 85.7 0 0 1 7.4-21.1 49.7 49.7 0 0 1 9.3-12.8c1.5-1.3 2.1-1.6 3.1-1.7 1-.1 1.3 0 1.9 1.1.6 1 .7 1.8 1.2 4s.9 3.7 1.2 6.9c.4 3.2.6 5.3.6 9.1.1 3.9 0 6.2-.1 10l-.5 9.3c0 3.4-.3 5 0 7.6.2 2.6.4 3.7 1 5.4.8 1.8 1.2 2.5 2.4 3.3 1.2 1 2 1.2 3.5 1 1.6 0 2.5-.3 4.3-1.5 1.8-1.1 2.8-2 4.5-4.2 1.8-2.3 2.5-4 4.3-7.3a168.4 168.4 0 0 0 9.2-19.3l4-10c1.4-3.8 2.1-5.6 2.9-8.5.8-3 1-4.3 1-6.4 0-2.2-.3-3-1.1-4.3-.8-1.2-1.6-1.6-3-1.8-1.5-.2-2.5-.1-4.3 1-1.8 1-3 2-4.7 4.5a83.8 83.8 0 0 0-9 29.6 55.8 55.8 0 0 0 .7 19c.9 2.8 1.7 4 3.4 6s2.8 2.7 5 3.6c2.1.9 3.4 1.1 6 1 2.4-.3 3.8-.6 6.3-2a21 21 0 0 0 6.1-4.5 70.8 70.8 0 0 0 10.4-15.8c1.9-3.6 2.7-5.8 4.2-9.5l3.4-9c1-3.3 1.7-5 2.3-7.4.6-2.4.7-3.5.6-5 0-1.3-.4-2-1-2-.5-.2-1.2.1-1.9 1.5s-1.2 2.6-1.5 5.4c-.4 2.8 0 4.8-.2 8.5-.1 3.7-.3 6.1-.6 10l-.8 9.8c-.3 3.6-.7 5.3-.7 8s0 3.9.4 5.4c.4 1.5.8 2 1.5 2.1.6.2 1.2 0 1.9-1.2.6-1.2 1-2.2 1.2-4.6.2-2.5-.2-4.3-.2-7.6a69.3 69.3 0 0 1 7.3-33.3c1.1-2.2 1.7-3 2.8-4.5a13.6 13.6 0 0 1 6.3-4.7c1.3-.5 2-.6 3.3-.8 1.3-.2 2-.2 3.4-.2 1.3 0 2 .2 3.3 0 1.3 0 2.5 0 3.3-.5.7-.5.9-1.4.3-2.1-.6-.8-1.8-1.3-3.2-1.6-1.4-.4-2.2-.3-3.8-.3a18 18 0 0 0-4 .4c-1.7.3-2.6.6-4.2 1.3a16 16 0 0 0-4 2.4 19 19 0 0 0-3.7 3.6 39.2 39.2 0 0 0-6.3 12c-1.1 3-1.6 5-2.5 8.6a130.8 130.8 0 0 0-3.1 19.3c-.4 3.5-.8 5.3-.7 7.8.1 2.5.6 3.6 1.2 4.8.6 1.2 1.2 1.3 1.8 1.2.6-.2 1-.6 1.3-2 .4-1.5.5-2.7.7-5.3.2-2.6 0-4.4.2-8A177.4 177.4 0 0 1 886 299c.5-3.6 1.3-5.6 1.4-8.4a14 14 0 0 0-.5-5.6c-.4-1.6-1-2-1.8-2-.7-.1-1.2.3-2 1.5-.6 1.3-1 2.2-1.6 4.6-.8 2.4-1 4-2 7.3s-1.5 5.3-3 9a78.4 78.4 0 0 1-9 17.3 34.5 34.5 0 0 1-10.5 9.7c-2 1.1-3 1.5-4.8 1.8-1.7.3-2.6.3-4.1-.3-1.5-.5-2.3-1-3.5-2.4a26 26 0 0 1-4-12.5 61.3 61.3 0 0 1 6.2-30c1.6-3.4 2.9-4.7 4.4-6.9 1.4-2.2 2-2.9 3-4l1.6-1.8c.5-.3.6-.3.7.3 0 .7 0 1.2-.3 2.9s-.5 2.9-1.3 5.7c-.7 2.8-1 4.7-2.3 8.3a115.7 115.7 0 0 1-8.4 19.8 79 79 0 0 1-5 8.6c-2 3-3.3 4-5 6.1l-3.3 4a9.7 9.7 0 0 1-2 2c-.6.4-.7.4-1.1 0-.4-.4-.5-.8-.7-2.2l-.4-4.8-.1-7.2c0-3.3.1-5.4.3-9.3 0-3.8.3-6.1.4-10 0-4 .2-6.2 0-9.6-.3-3.5-.4-5.3-1.3-7.8a9.7 9.7 0 0 0-3.2-5 5.8 5.8 0 0 0-4.5-1.6c-2 0-3.1.3-5.1 1.7-2 1.5-3.2 2.7-5.2 5.5a114 114 0 0 0-9.6 19.3c-1.6 4.3-2.4 6.9-3.7 10.8-1.3 4-2.2 6-2.8 9-.5 2.9-.4 4.2-.2 5.8.2 1.5.8 1.9 1.3 1.9s1-.4 1.4-2c.4-1.5.6-2.6 1-5.6l.5-9 1-11.9 1.3-13.6 1-14 1-12.6c.3-4.4.8-6.5.8-9.5s-.3-4-.7-5.6c-.4-1.5-.7-1.8-1.3-2.3-.5-.4-1-.3-1.5.2M924.7 274.8c-.7.3-1 .6-1.6 2-.7 1.4-1.2 2.3-1.7 5-.5 2.5-.4 4.4-.7 8l-1.2 10.5c-.5 4.2-1 6.8-1.6 11-.6 4.1-1 6.3-1.7 9.8l-1.4 7.8c-.2 2.6-.3 3.7 0 5.3.3 1.5.7 2 1.5 2.3.8.3 1.5.2 2.4-.8 1-1 1.6-2 2.3-4.4.7-2.5.5-4.3 1.3-8 .7-3.8 1-6.2 2.3-10.6A101.3 101.3 0 0 1 933 291c1.9-3.4 3.1-5 4.8-7.2 1.8-2.3 2.6-3.1 3.8-4.1 1.1-1.1 1.5-1.3 2.2-1.2.6.2.7.5 1 2l.4 5c.2 2.6.5 4.4.6 8 0 3.5 0 5.8-.4 9.6-.3 4-.6 6.2-1.2 9.7-.5 3.6-1 5.4-1.5 8.2-.4 2.8-.7 4.1-.6 6 0 1.8 0 2.5.6 3.2.6.8 1.2 1 2.1.5 1-.5 1.7-1 2.5-3 .9-1.9 1-3.4 1.9-6.6.8-3.3 1-5.6 2.3-9.8A93.8 93.8 0 0 1 960 291c2-3.4 3.2-4.8 5-7 1.6-2.1 2.4-2.9 3.5-3.8 1-1 1.4-1.2 2-1 .6.3.6.8.9 2.3.3 1.6.4 2.9.7 5.7.3 2.8.7 4.8.9 8.6V306l-.5 10.3c-.2 3.8-.5 5.6-.4 8.7 0 3 .2 4.4.7 6.6.6 2.2 1 3 2 4.3.9 1.3 1.6 1.8 3 2.2 1.4.3 2.3.3 4-.3 1.7-.7 2.6-1.2 4.4-2.9 1.8-1.7 2.7-3 4.6-5.7 1.9-2.8 2.8-4.6 4.8-8.1a184.4 184.4 0 0 0 9.7-20l4-9.7c1.3-3.5 2-5.2 2.7-8 .6-3 .7-4.2.5-6.3-.2-2.1-.5-3-1.5-4.3a4.5 4.5 0 0 0-3.6-1.9c-1.7-.1-3 0-5 1.2-2 1.3-3.1 2.3-5 4.9a66.7 66.7 0 0 0-10 29.9c-.5 4.3-.5 6.7 0 10.6a26 26 0 0 0 7.4 16c2.3 2.4 3.8 3.3 6.8 4.6 2.9 1.4 4.6 1.8 7.7 2.3 3.2.6 5.2.7 8.1.4 3-.2 4.5-.7 6.6-1.4 2-.8 3.2-1.5 3.9-2.2.7-.8.5-1.2-.4-1.5-1-.3-2.2 0-4.2 0-2.1 0-3.4.3-6.1.3-2.7.1-4.4.5-7.2.1-2.8-.3-4.3-.6-6.8-1.7a17 17 0 0 1-5.8-3.6 22 22 0 0 1-6.8-13.7 50 50 0 0 1 2.1-20.5c1.2-4 2.2-6.3 4-9.7 1.7-3.3 3-4.8 4.7-7 1.7-2.2 2.5-3 3.8-4.1a6.7 6.7 0 0 1 2.4-1.8c.7-.3.9-.2 1.2.4.3.6.4 1.1.2 2.7-.1 1.6-.4 2.7-1 5.3a99.5 99.5 0 0 1-5.7 17.4 129.2 129.2 0 0 1-10 19.3c-2 3.4-3.3 5-5.3 7.4l-4.3 4.9-2.8 2.9c-.9.8-1.1 1-1.6 1s-.7 0-1-1a11 11 0 0 1-.8-3.4 60 60 0 0 1-.4-6v-8.5c0-3.8.3-6 .5-10.2l.5-10.5c0-4 .3-6 0-9.2a15 15 0 0 0-2-6.6c-1.2-1.9-2.1-2.5-3.8-3-1.6-.5-2.6-.4-4.5.5-1.9 1-3 1.7-5 4-1.9 2.4-2.8 4.2-4.8 7.8-1.9 3.6-3 6-4.8 10.1-1.9 4.2-2.8 6.8-4.3 11-1.6 4-2.5 6.2-3.6 9.5-1 3.2-1.6 4.6-1.9 6.7-.3 2 0 2.7.5 3.5.4.8.9.8 1.4.4.6-.5.9-1.1 1.4-2.8.5-1.8.7-3 1.2-5.8l1-8.4 1.2-9.8 1-10c.2-3.7.5-5.6.1-8.6-.4-2.9-1-4.3-2.2-6-1.2-1.8-2-2.4-3.8-2.8-1.6-.3-2.7-.2-4.6.9-1.9 1-3 2-4.9 4.5-2 2.5-2.8 4.3-4.7 8-1.9 3.7-3 6.1-4.7 10.5-1.7 4.4-2.6 7.2-4 11.6-1.6 4.4-2.2 6.9-3.4 10.5-1 3.7-1.8 5.4-2.3 7.9-.5 2.4-.2 3.4 0 4.6.2 1.2.6 1.4 1 1.3.5 0 .8-.4 1.2-1.7.5-1.3.6-2.3 1-4.9.4-2.5.4-4.2.9-7.7l1.5-10a519.4 519.4 0 0 1 3.7-21.2c.7-3.6 1.3-5.3 1.7-8 .4-2.5.2-3.5 0-5 0-1.4 0-1.8-.5-2.3-.4-.6-.9-.7-1.5-.4"/>
</svg>
