<svg xmlns="http://www.w3.org/2000/svg" viewBox="0 0 400 400">
  <circle cx="200" cy="200" r="198" fill="#fff" />
  <path id="rings" fill="#ffa700" d="M94.6 244.6c-16.6-14.2-32.9-27-48.1-41-20.1-18.2-30-40.3-24.2-68.4 4.3-21.5 12.3-40 32.7-49.9a142.1 142.1 0 0 1 41-13.5 338 338 0 0 1 81.6-2.7 171.1 171 0 0 1 92.1 39c3.3 2.6 5.5 6.6 8 9.6 11.8-.3 23.4-1.2 35-1 32 .8 54.9 16.3 69.7 44.2a101 101 0 0 1 11.2 40.6 65 65 0 0 1-10 36.4c-12.3 22-28 41-48.1 56.3-16 12-31.2 24.8-48.7 35a262.6 262.6 0 0 1-104.5 33.9 417.6 417.6 0 0 1-43.4 2c-20.4.5-36.3-7.5-45.5-26.3-5.3-11.2-11-22.4-14.5-34.2a56 55.9 0 0 1 10-52.7l5.8-7.2zm249.9-84.5c0 3.4-1.7 7.4 4.4 9.6l-.7-11.1-4 1.8c.5-3.8 2.4-8-2.9-10.2-3.4 10.7-3.4 10.7-.5 15.8zm-47.9-8.6-.3-7.6-8 6c-1.9-4.1-.2-6.4 3.8-7.6a82.8 82.8 0 0 1 45.9-1.4c15.8 4.3 21.2 12.6 20.5 29 0 2.8-.5 5.5-1.1 8.2-2.7 10-5.7 19.9-8.2 29.9a48.9 48.8 0 0 1-16.6 25.6c-8.5 7-17.2 13.9-26.1 20.3-26.3 18.6-55.6 32-84.2 46.4a183.5 183.3 0 0 1-75.4 20c-12.4.6-24.8-.4-36.4-6-14.1-7-18.9-18.4-13.5-33.7l7.8 21 1.5-.3-4.4-28.6c6.4 10.8 5.8 23.7 12.4 34.4 1.2-2.6 1.8-5.2 1.4-7.6-.8-4.3-2.3-8.5-3-13-1.3-6.8-2-13.7-3.1-20.4l2.2-.4 7 27.7c7.2-12 .9-22.7 2-32.9l-19-11.8a55.7 55.6 0 0 0-17.2 36.6c-1 18.2 8 32.5 16.5 47 1.5 2.7 3.8 5 6 8l2-5c4 7.8 5.7 17 17.6 16.1l-6.5-17.1c11.6 19 11.6 19 18.1 18l-1.2-7.8-.3.2c1.4 1.9 3 3.6 4 5.6 1.7 3.4 4.7 4.1 7.8 3.6 8.2-1.1 16.5-.7 25-1.6l-5.4-14.2a14.3 14.3 0 0 1 5 6.5c2.4 5.2 5.1 8.2 11.9 6.5 17.7-4.6 36.3-6.4 53.2-12.6A282.5 282.5 0 0 0 340 274.3a178.8 178.6 0 0 0 32.7-43.8 56.3 56.3 0 0 0 7-21.4 88 88 0 0 0-16.6-57.5 59.4 59.3 0 0 0-32.2-23 99.7 99.7 0 0 0-53.2-.8c-18.6 4.5-35.2 14-52.7 21.3a411.7 411.7 0 0 0-84.7 51.3c-1.8 1.4-3.3 3-6 5.6l18.1 8.8 1.5-8.6-7.3.5c7.7-12 34.4-28 49.3-30 5 11.5-.1 23.5.7 35.4 6-1.7 5.7-6.3 6.5-10.2 1.7-9 3.1-18 4.7-27l1.7.2-2.7 30.9 8.6-5.8a53 53 0 0 1 6.3-26.8l-2.6 25.2c17.9-11.9 36-17.1 54.1-22.7 2.6-.7 4.6-3.7 7-5.6 6.1 2.3 8 1.9 10.1-3.2 2.4-5.2 4.4-10.6 6.7-16l-3.8 19.1 8.6-5.7 4.5 2.2 7-22.5c-7.6-.5-13.8-.4-16.7 7.4zm-113 74.1c5.4-3.8 7.6-9.1 8.4-15.7 1-10.1 2.7-20.1 4-30.2l-2-1.1-28 17.2a519 519 0 0 0-2.3 20.6c-.4 3.8 1.6 5.5 5.6 5l4.2-25 2 .2-2.1 27.1c3 1 5.3 2 7.6 2.5.9.2 2-.5 2.9-.9zM319.3 196l-.6-11.8c7.8 5 12.4 15.3 10.2 23a34.5 34.5 0 0 1-15.3 21.2 115.5 115.4 0 0 1-54.6 19.5c-37 2.8-71.2-5.2-104.7-19.3A292.9 292.6 0 0 1 91.9 190a123.3 123.1 0 0 1-34.4-37 40.3 40.3 0 0 1 .8-40.4c5.2-9.5 15-14.4 24.8-18.1l2.2 1.5-10 31.5c10.9-4.6 9.2-17.5 18.2-24.8l-7.8 23.1c5.2 2.4 6.7-.2 8.1-3.9 2.5-6.4 5.4-12.6 8.1-18.8l2.2.8-7.1 21.9c5 1.9 6.2-.9 7.6-3.9 3.6-7.8 7.6-15.4 11.5-23.1l1.9.8-10.3 26.7c8.5 1.6 7.6-5.3 10-8.7 2.8-4 4.8-8.4 7.2-12.7l1.7 1-8.2 20.9c1 .4 1.7.9 2.5 1.3l18.2-29 2 1-13.4 26.1c1 .9 1.4 1.6 2 1.7 1.3.3 2.6.3 4 .4a52.5 52.5 0 0 1 18-27.3l-13.4 27.3c24.7 5 49.3 8.7 72.3 19.1l43.3-20.9a120.9 120.8 0 0 0-34.7-18.3c-12-4.6-24.4-8-36.7-12 15.2-4.3 61.4 14 74.1 29.4 1.6-.6 3.3-1 4.8-1.7 1.5-.5 2.8-1.4 4.3-2.3l-2.3-3-3-2.9a162.3 162.2 0 0 0-104.2-36.8c-7.3.1-14.6-.2-21.8.2-13.4.6-27 .4-40.1 2.5a116.8 116.8 0 0 0-41 14c-5.2 3.2-9.4 7-11 13a762 761.2 0 0 0-7.3 30.3c-5 22.6 3.8 40.8 19.6 55.8 12.9 12.3 27.2 23.4 40.7 35 26.5 22.5 58.3 33.2 91.1 41.8l8.3-7 1 1-6 6.7c7 3 7 3 10.9-.2 3.3-2.9 6-6.8 12.9-8.8L201 276.8c9.1 3.3 12.4-4.7 19.5-7.1l-5.5 8c4.8 3.4 8.3 3 12-1a322 322 0 0 1 13.8-14.2c1.6-1.5 3.6-2.8 5.4-4.3l1 1.4-17.2 19.6c4.3 3.3 6.7 1 8.9-1.3l18-18.6c2.1-2.2 4.5-4.3 6.9-6.4l1.2 1.4-10.6 14.3a232.3 232.3 0 0 0 78.9-52.4c-2.7-14.1 1.3-29-10.2-39.9a100 100 0 0 0-41.7 10c6.8 2.8 9.8 11.4 18.3 6.4-3.6 8 4.3 12 5.3 19.2 2.9-2.5 4.8-4.3 6.7-6.1l-5.2 14.3c5-4 8.2-8.8 12.4-12.6 4.4-4.2 4.6-7.7.2-11.7zm-193 4c20.1-19.4 45.1-31 69.6-45.7-2.6-1.3-3.7-2-5-2.4a376.8 376.8 0 0 0-99.7-16.2 64 64 0 0 0-28.8 6.2c7.3 16.8 33 40 63.9 58.2zm66.3 29.5c33.8 8.8 67.5 11.5 101.2.6 2.3-18.5-7.9-28.6-20.4-37.7-3.3-2.4-6.4-2.7-10.5-1.6a196.5 196.3 0 0 0-70.3 38.7zM127 311.3c32.4.6 61.5-7.3 91-22-3.8-1.4-5.7-2.3-7.6-2.8-6.7-1.4-13.6-2.3-20.1-4-12-3.2-24-6.7-35.8-10-3.7-1-7.3-1.9-10.4 2-8.6 10.5-16 21.3-17.1 36.8zM59.5 132.7l9.3-20.3 1.4.8-6.7 20c3.6-2 6.3-2.4 6.6-3.6 3.9-9.5 7.1-19.1 10.8-29.4-18.2 8.7-23.4 16.2-21.4 32.4zm272.3 18.7-2 12.1 2.2.8c4.7-4 4-10.6 6.8-16.5l-13.3-3.4-5.6 19.7c9.6 0 6.3-9.2 11.9-12.7zm-21.4 14 2.4.7c7.1-5.2 7-13.7 9.5-23.7-3.7 1.8-6.7 2.2-7 3.6-2 6.3-3.4 12.8-4.8 19.3zm-186.9 95.9 2.9 19.2 11.4-13.2zM343.8 195l3.2-13-13.8-6.2 10.6 19.1zm-184.3 22.6 3-18.2c-8.2 4.8-9 8.2-2.9 18.1z" />
  <style>@media (prefers-color-scheme:dark){#rings{fill:#000}}</style>
</svg>
