<svg xmlns="http://www.w3.org/2000/svg" viewBox="0 0 400 400">
   <circle cx="200" cy="200" r="198" fill="white" />
   <path id="rings" fill="#ffa700" d="M85 244c-17.4-14.9-34.4-28.3-50.4-43-21-19.1-31.3-42.2-25.3-71.7 4.5-22.5 12.9-42 34.2-52.3 13.5-6.6 28.2-12 43-14.2 28.2-4.3 56.9-5.4 85.4-2.8a179.2 179.2 0 0 1 96.5 40.8c3.5 2.8 5.8 7 8.4 10.2 12.3-.4 24.5-1.3 36.6-1 33.6.7 57.5 17 73 46.3 7 13.3 10.7 27.7 11.7 42.5 1 13.8-3.8 26.3-10.4 38.2-12.9 23-29.4 43-50.4 59-16.7 12.6-32.7 26-51 36.7-34 20-70.6 31-109.4 35.5-15 1.7-30.3 2-45.5 2.2-21.3.4-38-7.9-47.6-27.7-5.6-11.7-11.5-23.4-15.2-35.8a58.6 58.6 0 0 1 10.5-55.3l6-7.5zm261.7-88.6c0 3.6-1.8 7.8 4.6 10.1l-.7-11.7-4.2 1.9c.5-4 2.5-8.3-3-10.7-3.6 11.2-3.6 11.2-.5 16.6zm-50.1-9-.4-8-8.4 6.4c-1.9-4.4-.1-6.8 4-8.1 16-4.8 32.2-5.7 48.1-1.4 16.6 4.5 22.2 13.2 21.5 30.4-.1 2.9-.5 5.8-1.2 8.6-2.8 10.4-5.9 20.8-8.6 31.3a51.2 51.2 0 0 1-17.3 26.9c-8.9 7.4-18 14.5-27.4 21.2-27.5 19.5-58.2 33.5-88.1 48.7a192.2 192.2 0 0 1-79 21c-13 .6-26-.5-38.1-6.4-14.8-7.2-19.8-19.2-14.2-35.3l8.2 22.1 1.6-.4-4.6-29.9c6.7 11.3 6 24.8 13 36 1.2-2.7 1.8-5.4 1.4-7.9-.8-4.6-2.4-9-3.2-13.7-1.3-7.1-2.1-14.3-3.2-21.4l2.3-.4 7.3 29.1c7.6-12.7 1-23.8 2.2-34.5l-20-12.4a58.3 58.3 0 0 0-18 38.4c-1 19 8.4 34 17.3 49.3 1.6 2.8 4 5.2 6.3 8.3l2.2-5.3c4 8.3 5.9 18 18.3 17l-6.8-18c12.2 20 12.2 20 19 19l-1.3-8.3-.3.2c1.5 2 3.2 3.8 4.3 5.9 1.7 3.6 4.8 4.3 8.1 3.8 8.6-1.2 17.3-.8 26.2-1.7l-5.7-14.9a15 15 0 0 1 5.2 6.8c2.5 5.5 5.4 8.6 12.5 6.8 18.5-4.8 38-6.7 55.7-13.2 40-14.9 76-37 106.5-67.3a187.2 187.2 0 0 0 34.3-45.9 59 59 0 0 0 7.3-22.4c1.5-22-4.7-42-17.4-60.3a62.2 62.2 0 0 0-33.7-24.1c-18.4-5.7-37-5.2-55.7-.8-19.5 4.7-36.9 14.6-55.2 22.3-32.2 13.7-60.9 33-88.7 53.8-1.9 1.4-3.5 3.2-6.4 5.8l19.1 9.3 1.5-9.1-7.6.6c8-12.7 36-29.4 51.6-31.4 5.3 12-.1 24.5.7 37 6.3-1.8 6-6.6 6.8-10.7 1.8-9.4 3.3-18.9 5-28.3l1.7.2-2.8 32.4 9-6a55.6 55.6 0 0 1 6.6-28.1l-2.7 26.4c18.7-12.5 37.7-18 56.7-23.8 2.7-.8 4.8-3.9 7.2-5.9 6.5 2.4 8.4 2 10.7-3.3 2.5-5.5 4.6-11.2 7-16.8l-4 20 9-6 4.7 2.3 7.4-23.6c-8-.5-14.5-.4-17.5 7.8zm-118.4 77.7c5.7-4 8-9.6 8.8-16.5 1-10.6 2.8-21.1 4.3-31.6l-2.2-1.2-29.3 18c-.9 7.3-1.8 14.5-2.4 21.6-.4 4 1.7 5.8 5.8 5.3l4.5-26.3 2 .3-2.2 28.4c3.2 1 5.6 2 8 2.6.9.2 2-.5 3-.9zm142.1-31.2-.6-12.3c8.2 5.2 13 16 10.7 24-2.5 9.3-7.5 17-16 22.3a121 121 0 0 1-57.2 20.5c-38.7 2.9-74.6-5.5-109.7-20.3a306.7 306.7 0 0 1-65.3-40.4 129.1 129.1 0 0 1-36-38.8c-8-14.3-6.4-29 .8-42.4 5.4-10 15.7-15.1 26-19l2.3 1.6-10.4 33c11.3-4.8 9.5-18.3 19-26l-8.2 24.3c5.4 2.5 7-.3 8.5-4.1 2.6-6.7 5.6-13.2 8.5-19.7l2.3.8-7.5 22.9c5.3 2 6.5-.9 8-4 3.8-8.2 8-16.2 12-24.3l2 .9-10.8 28c8.9 1.6 8-5.6 10.5-9.2 2.9-4.2 5-8.8 7.5-13.3l1.8 1-8.6 22c1 .4 1.8.9 2.7 1.4l19-30.5 2.1 1.2-14 27.3c1 .9 1.4 1.6 2 1.7 1.4.4 2.8.4 4.2.5a55 55 0 0 1 18.9-28.7l-14 28.7c25.9 5.2 51.6 9.1 75.7 20l45.3-21.9a126.6 126.6 0 0 0-36.3-19.2c-12.5-4.8-25.5-8.4-38.4-12.5 15.9-4.6 64.3 14.6 77.6 30.7 1.6-.6 3.4-1 5-1.7 1.6-.6 2.9-1.5 4.5-2.5l-2.4-3.1c-1-1-2-2.1-3.1-3a170 170 0 0 0-109.2-38.6c-7.6.1-15.3-.2-22.8.2-14 .6-28.3.4-42 2.6-15 2.4-29.6 6.9-42.9 14.7-5.5 3.3-9.9 7.4-11.5 13.7a798 798 0 0 0-7.7 31.7c-5.2 23.7 4 42.8 20.5 58.5 13.5 12.9 28.5 24.5 42.7 36.7 27.7 23.6 61 34.8 95.4 43.8l8.7-7.3 1 1-6.3 7c7.4 3.1 7.4 3.1 11.4-.2 3.5-3 6.3-7.1 13.5-9.2l-12.9 14.4c9.5 3.4 12.9-5 20.4-7.5l-5.8 8.4c5 3.6 8.7 3.2 12.5-1.1 4.6-5.1 9.6-10 14.5-14.8 1.7-1.6 3.8-3 5.7-4.5l1 1.4-18 20.6c4.5 3.4 7 1 9.3-1.4l18.8-19.5c2.3-2.3 4.8-4.5 7.3-6.7l1.3 1.5-11.1 15c31.5-13.3 59.5-31 82.6-55-2.8-14.8 1.4-30.3-10.7-41.8-14.6.7-29 3-43.7 10.4 7.2 3 10.3 12 19.2 6.8-3.8 8.4 4.5 12.6 5.6 20.1 3-2.6 5-4.5 7-6.4l-5.5 15c5.2-4.2 8.6-9.2 13-13.2 4.6-4.4 4.8-8.1.2-12.3zm-202.1 4.2c21.1-20.3 47.3-32.5 72.9-47.9-2.7-1.3-3.9-2-5.2-2.5-34-10.8-69-15.6-104.4-17a67 67 0 0 0-30.2 6.5c7.6 17.6 34.5 42 66.9 61zm69.4 31c35.4 9.2 70.7 12 106 .6 2.4-19.4-8.2-30-21.3-39.5-3.5-2.5-6.7-2.9-11-1.7a205.8 205.8 0 0 0-73.7 40.6zm-68.7 85.8c34 .6 64.5-7.6 95.4-23-4-1.5-6-2.5-8-3-7-1.4-14.2-2.4-21.1-4.2-12.6-3.3-25-7-37.4-10.4-3.9-1.1-7.7-2-10.9 2-9 11-16.8 22.4-18 38.6zm-70.6-187.2 9.7-21.3 1.5.8-7.1 21c3.8-2 6.6-2.5 7-3.8 4-9.9 7.4-20 11.3-30.8-19.1 9.1-24.5 17-22.4 34zm285.1 19.6-2.1 12.7 2.3.8c5-4.2 4.3-11.1 7.2-17.3l-14-3.5-5.8 20.6c10 .1 6.6-9.6 12.4-13.3zm-22.4 14.6 2.5.8c7.5-5.4 7.3-14.4 10-24.8-3.9 1.8-7 2.3-7.4 3.7-2 6.6-3.5 13.5-5 20.3zm-195.7 100.6 3 20.1 12-13.8zm230.7-69.5 3.3-13.7-14.4-6.4 11.1 20zm-193 23.7 3.2-19.1c-8.7 5-9.5 8.6-3.1 19z"/>
   <style>@media (prefers-color-scheme: dark) { #rings { fill: black; }</style>
</svg>
