<svg xmlns="http://www.w3.org/2000/svg" viewBox="0 0 3543 2125"><defs><pattern id="b" width="8" height="8" x="0" y="0" patternUnits="userSpaceOnUse"><path fill="#b3b3b3" d="M0 0h8v8H0z" mask="url(#a)"/></pattern><mask id="a" width="8" height="8" x="0" y="0" fill="#fff" stroke="none"><path d="M3 0h1v1H3zM7 0h1v1H7zM1 2h1v1H1zM5 2h1v1H5zM3 4h1v1H3zM7 4h1v1H7zM1 6h1v1H1zM5 6h1v1H5z"/></mask></defs><g fill="none" fill-rule="evenodd" stroke="#000" stroke-linecap="square" stroke-linejoin="bevel" font-family="MS Shell Dlg 2" font-size="32.8" font-weight="400"><path fill="#fff" stroke="none" d="M-2-2h3546v2129H-2V-2"/><path fill="#fff" stroke="none" d="M0 0h3542v2125H0V0"/><path fill="none" fill-opacity="0" stroke="none" d="M0 0h3541v2125H0z"/><path stroke="#09151e" stroke-width="1.8991259999999999" d="m985 1733 167 2 14-333-76-3-11 209-88-1-6 126"/><path fill="url(#b)" stroke="#232323" stroke-width="3.1" d="m985 1733 167 3 15-333-76-3-12 208h-87l-7 125" transform="matrix(.99954 0 0 .99954 0 0)"/><path stroke="#09151e" stroke-width="1.8991259999999999" d="m408 1649 7-214-273 3-7 213 273-2"/><path fill="url(#b)" stroke="#232323" stroke-width="3.1" d="m408 1650 7-214-273 3-7 213 273-2" transform="matrix(.99954 0 0 .99954 0 0)"/><path stroke="#09151e" stroke-width="1.8991259999999999" d="m1155 1742-424-12-1 27v63l-3 54 307 1 69-7 52-126"/><path fill="url(#b)" stroke="#232323" stroke-width="3.1" d="m1156 1742-425-11v26l-1 64-3 54 307 1 69-7 53-127" transform="matrix(.99954 0 0 .99954 0 0)"/><path stroke="#09151e" stroke-width="1.8991259999999999" d="m1862 1146-24-21-9-8-17-15-60 34 5 7-32 17-9-9-47 26 49 50 28-15 20-12 61-34 35-20"/><path fill="url(#b)" stroke="#232323" stroke-width="3.1" d="m1863 1147-25-22-8-7-17-15-60 34 5 6-32 18-9-9-47 25 49 51 28-16 20-11 61-34 35-20" transform="matrix(.99954 0 0 .99954 0 0)"/><path stroke="#09151e" stroke-width="1.8991259999999999" d="m1970 1500-40 45-35-25 10-121 7-6 92 40-56 57 22 10"/><path fill="url(#b)" stroke="#232323" stroke-width="3.1" d="m1971 1501-40 44-35-24 9-122 8-5 91 40-56 57 23 10" transform="matrix(.99954 0 0 .99954 0 0)"/><path stroke="#09151e" stroke-width="1.8991259999999999" d="m721 1646-227 2 7-212 227-2-1 29-6 183"/><path fill="url(#b)" stroke="#232323" stroke-width="3.1" d="m722 1647-227 2 7-213 227-2-1 29-6 184" transform="matrix(.99954 0 0 .99954 0 0)"/><path stroke="#09151e" stroke-width="1.8991259999999999" d="m1649 1270-335-159 20-24 18-21 163 81 134 123"/><path fill="url(#b)" stroke="#232323" stroke-width="3.1" d="m1649 1270-335-158 21-25 17-20 163 81 134 122" transform="matrix(.99954 0 0 .99954 0 0)"/><path stroke="#09151e" stroke-width="1.8991259999999999" d="m722 1929 10-1 106 3 23-3 47 1-16 12-21 33-19 29-17-6-8 8-35 33-7-4-70-35-4-2 11-68"/><path fill="url(#b)" stroke="#232323" stroke-width="3.1" d="m723 1930 9-1 106 3 23-3 47 1-15 12-22 33-18 29-18-6-8 8-34 33-8-4-70-35-4-2 12-68" transform="matrix(.99954 0 0 .99954 0 0)"/><path stroke="#09151e" stroke-width="1.8991259999999999" d="m2029 1836 36 20-19 18-46-22 17-21 12 5"/><path fill="url(#b)" stroke="#232323" stroke-width="3.1" d="m2030 1837 36 20-19 18-46-22 17-22 12 6" transform="matrix(.99954 0 0 .99954 0 0)"/><path stroke="#09151e" stroke-width="1.8991259999999999" d="m1849 1321 34-45-58-31-41 48 65 28"/><path fill="url(#b)" stroke="#232323" stroke-width="3.1" d="m1849 1322 34-45-57-31-41 47 64 29" transform="matrix(.99954 0 0 .99954 0 0)"/><path stroke="#09151e" stroke-width="1.8991259999999999" d="m2477 767-34-52-71 26 26 54 79-28"/><path fill="url(#b)" stroke="#232323" stroke-width="3.1" d="m2478 767-34-52-71 27 27 54 78-29" transform="matrix(.99954 0 0 .99954 0 0)"/><path stroke="#09151e" stroke-width="1.8991259999999999" d="m2372 741-67 26 21 51 72-23-26-54"/><path fill="url(#b)" stroke="#232323" stroke-width="3.1" d="m2373 742-67 26 21 51 73-23-27-54" transform="matrix(.99954 0 0 .99954 0 0)"/><path stroke="#09151e" stroke-width="1.8991259999999999" d="m2305 767-51 19 23 49 49-17-21-51"/><path fill="url(#b)" stroke="#232323" stroke-width="3.1" d="m2306 768-51 18 23 49 49-16-21-51" transform="matrix(.99954 0 0 .99954 0 0)"/><path stroke="#09151e" stroke-width="1.8991259999999999" d="m2254 786-35 11 28 48 30-10-23-49"/><path fill="url(#b)" stroke="#232323" stroke-width="3.1" d="m2255 786-35 11 28 49 30-11-23-49" transform="matrix(.99954 0 0 .99954 0 0)"/><path stroke="#09151e" stroke-width="1.8991259999999999" d="m2219 797-20 5 25 51 23-8-28-48"/><path fill="url(#b)" stroke="#232323" stroke-width="3.1" d="m2220 797-20 6 25 51 23-8-28-49" transform="matrix(.99954 0 0 .99954 0 0)"/><path stroke="#09151e" stroke-width="1.8991259999999999" d="m2199 802-14-31-26 7 22 45 20 41 23-11-25-51"/><path fill="url(#b)" stroke="#232323" stroke-width="3.1" d="m2200 803-14-32-26 8 22 44 20 41 23-10-25-51" transform="matrix(.99954 0 0 .99954 0 0)"/><path stroke="#09151e" stroke-width="1.8991259999999999" d="m2181 823-35 13 2 3 19 35 34-10-20-41"/><path fill="url(#b)" stroke="#232323" stroke-width="3.1" d="m2182 823-35 14 2 3 19 35 34-11-20-41" transform="matrix(.99954 0 0 .99954 0 0)"/><path stroke="#09151e" stroke-width="1.8991259999999999" d="m2148 839-61 21 18 37 62-23-19-35"/><path fill="url(#b)" stroke="#232323" stroke-width="3.1" d="m2149 840-61 21 18 36 62-22-19-35" transform="matrix(.99954 0 0 .99954 0 0)"/><path stroke="#09151e" stroke-width="1.8991259999999999" d="m2087 860-12-21-34 11 34 56 30-9-18-37"/><path fill="url(#b)" stroke="#232323" stroke-width="3.1" d="m2088 861-12-22-34 12 34 56 30-10-18-36" transform="matrix(.99954 0 0 .99954 0 0)"/><path stroke="#09151e" stroke-width="1.8991259999999999" d="m1922 912-72 29 25 40 30-12 42-17-25-40"/><path fill="url(#b)" stroke="#232323" stroke-width="3.1" d="m1923 912-73 29 26 40 30-12 42-17-25-40" transform="matrix(.99954 0 0 .99954 0 0)"/><path stroke="#09151e" stroke-width="1.8991259999999999" d="m1875 981-52 25-34-72 24-12 20 28 17-9 25 40"/><path fill="url(#b)" stroke="#232323" stroke-width="3.1" d="m1876 981-52 25-35-71 25-13 20 28 16-9 26 40" transform="matrix(.99954 0 0 .99954 0 0)"/><path stroke="#09151e" stroke-width="1.8991259999999999" d="m1806 1014-43-96-62 20 2 4 51 96 52-24"/><path fill="url(#b)" stroke="#232323" stroke-width="3.1" d="m1807 1014-43-95-62 20 2 3 51 97 52-25" transform="matrix(.99954 0 0 .99954 0 0)"/><path stroke="#09151e" stroke-width="1.8991259999999999" d="m1754 1038-55 27-29-50-29-49 62-24 51 96"/><path fill="url(#b)" stroke="#232323" stroke-width="3.1" d="m1755 1039-55 26-29-49-29-50 62-24 51 97" transform="matrix(.99954 0 0 .99954 0 0)"/><path stroke="#09151e" stroke-width="1.8991259999999999" d="m1699 1065-33 15-35-46 39-19 29 50"/><path fill="url(#b)" stroke="#232323" stroke-width="3.1" d="m1700 1065-33 16-36-46 40-19 29 49" transform="matrix(.99954 0 0 .99954 0 0)"/><path stroke="#09151e" stroke-width="1.8991259999999999" d="m1666 1080-39 19-66-86 39-18 31 39 35 46"/><path fill="url(#b)" stroke="#232323" stroke-width="3.1" d="m1667 1081-39 18-66-85 38-19 31 40 36 46" transform="matrix(.99954 0 0 .99954 0 0)"/><path stroke="#09151e" stroke-width="1.8991259999999999" d="m1627 1099-25 10-56-85 15-11 66 86"/><path fill="url(#b)" stroke="#232323" stroke-width="3.1" d="m1628 1099-25 10-57-84 16-11 66 85" transform="matrix(.99954 0 0 .99954 0 0)"/><path stroke="#09151e" stroke-width="1.8991259999999999" d="m1602 1109-27 11-63-80 34-16 56 85"/><path fill="url(#b)" stroke="#232323" stroke-width="3.1" d="m1603 1109-27 11-64-79 34-16 57 84" transform="matrix(.99954 0 0 .99954 0 0)"/><path stroke="#09151e" stroke-width="1.8991259999999999" d="m1804 1085 16-9 59 56-16 8-59-55"/><path fill="url(#b)" stroke="#232323" stroke-width="3.1" d="m1805 1085 15-8 60 55-16 9-59-56" transform="matrix(.99954 0 0 .99954 0 0)"/><path stroke="#09151e" stroke-width="1.8991259999999999" d="m1820 1076 54-30 58 55-53 31-59-56"/><path fill="url(#b)" stroke="#232323" stroke-width="3.1" d="m1820 1077 55-31 58 55-53 31-60-55" transform="matrix(.99954 0 0 .99954 0 0)"/><path stroke="#09151e" stroke-width="1.8991259999999999" d="m1874 1046 60-34 45 34 24 18-62 42-9-5-58-55"/><path fill="url(#b)" stroke="#232323" stroke-width="3.1" d="m1875 1046 60-34 45 34 24 18-62 43-9-6-58-55" transform="matrix(.99954 0 0 .99954 0 0)"/><path stroke="#09151e" stroke-width="1.8991259999999999" d="m1934 1012 38-21 43 35-36 20-45-34"/><path fill="url(#b)" stroke="#232323" stroke-width="3.1" d="m1935 1012 38-21 43 36-36 19-45-34" transform="matrix(.99954 0 0 .99954 0 0)"/><path stroke="#09151e" stroke-width="1.8991259999999999" d="m1972 991 50-23 30 38-37 20-43-35"/><path fill="url(#b)" stroke="#232323" stroke-width="3.1" d="m1973 991 50-23 30 38-37 21-43-36" transform="matrix(.99954 0 0 .99954 0 0)"/><path stroke="#09151e" stroke-width="1.8991259999999999" d="m2022 968 47-19 40 64-39 18-18-25-30-38"/><path fill="url(#b)" stroke="#232323" stroke-width="3.1" d="m2023 968 47-18 40 63-39 18-18-25-30-38" transform="matrix(.99954 0 0 .99954 0 0)"/><path stroke="#09151e" stroke-width="1.8991259999999999" d="m2258 1014 31-21-18-36-36 10 23 47"/><path fill="url(#b)" stroke="#232323" stroke-width="3.1" d="m2259 1014 31-21-18-36-36 11 23 46" transform="matrix(.99954 0 0 .99954 0 0)"/><path stroke="#09151e" stroke-width="1.8991259999999999" d="m2439 829 64-23 47 53-44 24-13-17-26 9-28-46"/><path fill="url(#b)" stroke="#232323" stroke-width="3.1" d="m2440 829 64-23 48 53-44 24-14-16-26 9-28-47" transform="matrix(.99954 0 0 .99954 0 0)"/><path stroke="#09151e" stroke-width="1.8991259999999999" d="m2167 1078-58 42-44-51 62-41 40 50"/><path fill="url(#b)" stroke="#232323" stroke-width="3.1" d="m2168 1079-58 41-44-51 62-40 40 50" transform="matrix(.99954 0 0 .99954 0 0)"/><path stroke="#09151e" stroke-width="1.8991259999999999" d="m2065 1069-25 20 43 50 26-19-44-51"/><path fill="url(#b)" stroke="#232323" stroke-width="3.1" d="m2066 1069-25 21 43 50 26-20-44-51" transform="matrix(.99954 0 0 .99954 0 0)"/><path stroke="#09151e" stroke-width="1.8991259999999999" d="m2036 1168-41 32-43-25-41-24 51-42 74 59"/><path fill="url(#b)" stroke="#232323" stroke-width="3.1" d="m2037 1168-41 33-43-25-41-24 51-43 74 59" transform="matrix(.99954 0 0 .99954 0 0)"/><path stroke="#09151e" stroke-width="1.8991259999999999" d="m1952 1175-24 29 13 10-12 16-63-32-15-13-14-15 44-33 30 14 41 24"/><path fill="url(#b)" stroke="#232323" stroke-width="3.1" d="m1953 1176-25 28 14 11-12 15-63-32-15-12-14-15 44-33 30 14 41 24" transform="matrix(.99954 0 0 .99954 0 0)"/><path stroke="#09151e" stroke-width="1.8991259999999999" d="m1866 1198-41 47 58 31 37 13 33-48-24-11-63-32"/><path fill="url(#b)" stroke="#232323" stroke-width="3.1" d="m1867 1198-41 48 57 31 38 12 33-47-24-12-63-32" transform="matrix(.99954 0 0 .99954 0 0)"/><path stroke="#09151e" stroke-width="1.8991259999999999" d="m1883 1276 37 13-30 52-41-20 34-45"/><path fill="url(#b)" stroke="#232323" stroke-width="3.1" d="m1883 1277 38 12-31 53-41-20 34-45" transform="matrix(.99954 0 0 .99954 0 0)"/><path stroke="#09151e" stroke-width="1.8991259999999999" d="m1842 1408 24-37-110-46-47 46 53 28 20-19 60 28"/><path fill="url(#b)" stroke="#232323" stroke-width="3.1" d="m1843 1408 24-36-110-46-47 46 53 27 20-18 60 27" transform="matrix(.99954 0 0 .99954 0 0)"/><path stroke="#09151e" stroke-width="1.8991259999999999" d="m1709 1371-34 37 76 39 33-37-22-11-53-28"/><path fill="url(#b)" stroke="#232323" stroke-width="3.1" d="m1710 1372-34 37 75 39 34-37-22-12-53-27" transform="matrix(.99954 0 0 .99954 0 0)"/><path stroke="#09151e" stroke-width="1.8991259999999999" d="m1675 1408-28 29 48 24 30 17 26-31-76-39"/><path fill="url(#b)" stroke="#232323" stroke-width="3.1" d="m1676 1409-28 29 48 23 30 18 25-31-75-39" transform="matrix(.99954 0 0 .99954 0 0)"/><path stroke="#09151e" stroke-width="1.8991259999999999" d="m1647 1437-46 51 53 28 34 18 25-29-39-19 21-25-48-24"/><path fill="url(#b)" stroke="#232323" stroke-width="3.1" d="m1648 1438-46 51 53 28 34 18 25-29-39-19 21-26-48-23" transform="matrix(.99954 0 0 .99954 0 0)"/><path stroke="#09151e" stroke-width="1.8991259999999999" d="m1601 1488-28 30 54 29 27-31-53-28"/><path fill="url(#b)" stroke="#232323" stroke-width="3.1" d="m1602 1489-28 29 54 29 27-30-53-28" transform="matrix(.99954 0 0 .99954 0 0)"/><path stroke="#09151e" stroke-width="1.8991259999999999" d="m1573 1518-46 51 54 29 17 9 47-51-18-9-54-29"/><path fill="url(#b)" stroke="#232323" stroke-width="3.1" d="m1574 1518-47 51 55 30 17 9 47-51-18-10-54-29" transform="matrix(.99954 0 0 .99954 0 0)"/><path stroke="#09151e" stroke-width="1.8991259999999999" d="m1527 1569-21 20 53 33 22-24-54-29"/><path fill="url(#b)" stroke="#232323" stroke-width="3.1" d="m1527 1569-20 21 53 33 22-24-55-30" transform="matrix(.99954 0 0 .99954 0 0)"/><path stroke="#09151e" stroke-width="1.8991259999999999" d="m1506 1589-32 31 78 48 32-31-25-15-53-33"/><path fill="url(#b)" stroke="#232323" stroke-width="3.1" d="m1507 1590-32 30 77 48 33-30-25-15-53-33" transform="matrix(.99954 0 0 .99954 0 0)"/><path stroke="#09151e" stroke-width="1.8991259999999999" d="m1468 1626-33 30 48 34 34-31-49-33"/><path fill="url(#b)" stroke="#232323" stroke-width="3.1" d="m1468 1627-33 30 48 34 35-32-50-32" transform="matrix(.99954 0 0 .99954 0 0)"/><path stroke="#09151e" stroke-width="1.8991259999999999" d="m1435 1656-21 18 61 42 21-17-13-9-48-34"/><path fill="url(#b)" stroke="#232323" stroke-width="3.1" d="m1435 1657-20 17 61 43 20-17-13-9-48-34" transform="matrix(.99954 0 0 .99954 0 0)"/><path stroke="#09151e" stroke-width="1.8991259999999999" d="m1414 1674-40 28 44 36 20 17 46-31-9-8-61-42"/><path fill="url(#b)" stroke="#232323" stroke-width="3.1" d="m1415 1674-41 29 45 36 19 17 47-31-9-8-61-43" transform="matrix(.99954 0 0 .99954 0 0)"/><path stroke="#09151e" stroke-width="1.8991259999999999" d="m1374 1702-39 28 45 37 38-29-44-36"/><path fill="url(#b)" stroke="#232323" stroke-width="3.1" d="m1374 1703-39 27 46 38 38-29-45-36" transform="matrix(.99954 0 0 .99954 0 0)"/><path stroke="#09151e" stroke-width="1.8991259999999999" d="m1335 1730-31 21 76 61 24-25-24-20-45-37"/><path fill="url(#b)" stroke="#232323" stroke-width="3.1" d="m1335 1730-30 22 75 61 24-25-23-20-46-38" transform="matrix(.99954 0 0 .99954 0 0)"/><path stroke="#09151e" stroke-width="1.8991259999999999" d="m1304 1751-77 54 51 44 26-18 18 15 16-12-22-19 8-5 26 23 30-21-76-61"/><path fill="url(#b)" stroke="#232323" stroke-width="3.1" d="m1305 1752-78 54 51 44 27-18 17 15 17-12-22-19 8-5 26 23 29-21-75-61" transform="matrix(.99954 0 0 .99954 0 0)"/><path stroke="#09151e" stroke-width="1.8991259999999999" d="m1227 1805-45 31 54 50 43-30-1-7-51-44"/><path fill="url(#b)" stroke="#232323" stroke-width="3.1" d="m1227 1806-44 31 53 50 44-30-2-7-51-44" transform="matrix(.99954 0 0 .99954 0 0)"/><path stroke="#09151e" stroke-width="1.8991259999999999" d="m1182 1836-41 16 33 61 62-27-54-50"/><path fill="url(#b)" stroke="#232323" stroke-width="3.1" d="m1183 1837-42 16 33 61 62-27-53-50" transform="matrix(.99954 0 0 .99954 0 0)"/><path stroke="#09151e" stroke-width="1.8991259999999999" d="m1141 1852-38 16-9 14 69 36 11-5-33-61"/><path fill="url(#b)" stroke="#232323" stroke-width="3.1" d="m1141 1853-38 16-9 14 70 36 10-5-33-61" transform="matrix(.99954 0 0 .99954 0 0)"/><path stroke="#09151e" stroke-width="1.8991259999999999" d="m1094 1882-33 54 68 25 34-43-69-36"/><path fill="url(#b)" stroke="#232323" stroke-width="3.1" d="m1094 1883-32 54 67 25 35-43-70-36" transform="matrix(.99954 0 0 .99954 0 0)"/><path stroke="#09151e" stroke-width="1.8991259999999999" d="m1061 1936-34 53 70 24 32-52-68-25"/><path fill="url(#b)" stroke="#232323" stroke-width="3.1" d="m1062 1937-35 52 70 25 32-52-67-25" transform="matrix(.99954 0 0 .99954 0 0)"/><path stroke="#09151e" stroke-width="1.8991259999999999" d="m1027 1989-24 37 72 27 9 2 24-37-11-5-70-24"/><path fill="url(#b)" stroke="#232323" stroke-width="3.1" d="m1027 1989-24 38 72 27 10 2 24-38-12-4-70-25" transform="matrix(.99954 0 0 .99954 0 0)"/><path stroke="#09151e" stroke-width="1.8991259999999999" d="m1003 2026-14 20 66 25 6 2 14-20-72-27"/><path fill="url(#b)" stroke="#232323" stroke-width="3.1" d="m1003 2027-14 20 67 25 5 2 14-20-72-27" transform="matrix(.99954 0 0 .99954 0 0)"/><path stroke="#09151e" stroke-width="1.8991259999999999" d="m989 2046-21 34 44 20 6-6 15 6 22-29-66-25"/><path fill="url(#b)" stroke="#232323" stroke-width="3.1" d="m989 2047-21 34 45 20 5-7 15 7 23-29-67-25" transform="matrix(.99954 0 0 .99954 0 0)"/><path stroke="#09151e" stroke-width="1.8991259999999999" d="m2385 1505-8 10 17 21-53 25-35-47 1-15 38-27 40 33"/><path fill="url(#b)" stroke="#232323" stroke-width="3.1" d="m2386 1506-7 9 16 22-52 25-36-47 2-16 37-26 40 33" transform="matrix(.99954 0 0 .99954 0 0)"/><path stroke="#09151e" stroke-width="1.8991259999999999" d="m2345 1472 40 33 20-13 5 4 24-16 14 13 23-16-10-8-18-16-31-28-67 47"/><path fill="url(#b)" stroke="#232323" stroke-width="3.1" d="m2346 1473 40 33 20-14 5 4 24-15 14 12 23-15-10-9-17-15-32-28-67 47" transform="matrix(.99954 0 0 .99954 0 0)"/><path stroke="#09151e" stroke-width="1.8991259999999999" d="m2412 1425 128-84 50 41-129 87-18-16-31-28"/><path fill="url(#b)" stroke="#232323" stroke-width="3.1" d="m2413 1426 128-85 50 42-129 86-17-15-32-28" transform="matrix(.99954 0 0 .99954 0 0)"/><path stroke="#09151e" stroke-width="1.8991259999999999" d="m2538 1140 52-77 154-55 209-69 108-126 77-131 96-115-66-23-93-49 94-95 176-191 137 86-89 183-66 118-188 327-89 81-168 82-119 52-101 66-124-64"/><path fill="url(#b)" stroke="#232323" stroke-width="3.1" d="m2540 1141 51-78 154-55 210-68 107-127 78-131 96-114-67-24-92-49 93-95 177-190 137 85-90 183-66 118-187 327-90 81-167 82-120 53-100 65-124-63" transform="matrix(.99954 0 0 .99954 0 0)"/><path stroke="#09151e" stroke-width="1.8991259999999999" d="m1825 1833 67-56 31 22-67 56-31-22"/><path fill="url(#b)" stroke="#232323" stroke-width="3.1" d="m1826 1834 67-56 31 22-67 56-31-22" transform="matrix(.99954 0 0 .99954 0 0)"/><path stroke="#09151e" stroke-width="1.8991259999999999" d="m783 1976 3 2 3 1 4-1 3-1 3-2 2-3v-2l-1-3-1-2-3-2-3-1h-7l-3 2-2 2-2 3v3l1 2 3 2"/><path fill="url(#b)" stroke="#232323" stroke-width="3.1" d="m783 1977 3 2 4 1 3-1 4-1 2-2 2-3v-5l-2-2-2-2-4-1h-7l-3 2-2 2-1 3v3l1 2 2 2" transform="matrix(.99954 0 0 .99954 0 0)"/><path stroke="#09151e" stroke-width="1.8991259999999999" d="m1239 856-70 21-38-79 28-9 42-14 38 81"/><path fill="url(#b)" stroke="#232323" stroke-width="3.1" d="m1240 856-71 21-37-79 28-9 41-14 39 81" transform="matrix(.99954 0 0 .99954 0 0)"/><path stroke="#09151e" stroke-width="1.8991259999999999" d="m1159 789-14-31 55-17-17-37-25 8-97 30 17 37 22-6 9 20-13 4 3 6 13-4 1 4 18-5 28-9"/><path fill="url(#b)" stroke="#232323" stroke-width="3.1" d="m1160 789-14-31 54-17-16-37-25 8-98 31 17 37 23-7 9 20-14 4 4 7 12-4 2 3 18-5 28-9" transform="matrix(.99954 0 0 .99954 0 0)"/><path stroke="#09151e" stroke-width="1.8991259999999999" d="m1139 614-16 5-84 28-15 4-4 2-18-37 118-39 19 37"/><path fill="url(#b)" stroke="#232323" stroke-width="3.1" d="m1140 614-17 6-83 27-16 5-3 1-19-37 119-39 19 37" transform="matrix(.99954 0 0 .99954 0 0)"/><path stroke="#09151e" stroke-width="1.8991259999999999" d="m1069 712-15 4-30-65 15-4 30 65"/><path fill="url(#b)" stroke="#232323" stroke-width="3.1" d="m1070 712-15 5-31-65 16-5 30 65" transform="matrix(.99954 0 0 .99954 0 0)"/><path stroke="#09151e" stroke-width="1.8991259999999999" d="m1158 712-10-22 7-3-32-68 16-5 44 90-25 8"/><path fill="url(#b)" stroke="#232323" stroke-width="3.1" d="m1159 712-11-22 8-3-33-67 17-6 44 90-25 8" transform="matrix(.99954 0 0 .99954 0 0)"/><path stroke="#09151e" stroke-width="1.8991259999999999" d="m1500 810-121-89-51 45-14-10-37 30 21 17 1 7 17 12-5 16 92 71 64-10-5-29-5-2-4-6 13-7-8-8 21-14-5-5 26-18"/><path fill="url(#b)" stroke="#232323" stroke-width="3.1" d="m1501 810-121-89-52 45-13-10-37 31 21 16v7l17 12-4 17 92 70 64-10-5-29-6-2-3-5 12-8-8-7 22-15-6-5 27-18" transform="matrix(.99954 0 0 .99954 0 0)"/><path stroke="#09151e" stroke-width="1.8991259999999999" d="m1500 957-41 20-71-47-1-10 5-6 94-19 27 44-20 9 7 9"/><path fill="url(#b)" stroke="#232323" stroke-width="3.1" d="m1501 957-41 20-71-46-2-11 5-5 95-20 27 44-20 9 7 9" transform="matrix(.99954 0 0 .99954 0 0)"/><path stroke="#09151e" stroke-width="1.8991259999999999" d="m1512 1040-51-60 59-30 5 16 42-20 18 25-51 21 3 3-3 4 13 21-35 20"/><path fill="url(#b)" stroke="#232323" stroke-width="3.1" d="m1512 1041-51-60 60-31 5 16 42-19 18 25-51 20 3 4-3 3 13 22-36 20" transform="matrix(.99954 0 0 .99954 0 0)"/><path stroke="#09151e" stroke-width="1.8991259999999999" d="m1515 1147-163-81-140-73 6-54h112l94 64-7 8 107 125-9 11"/><path fill="url(#b)" stroke="#232323" stroke-width="3.1" d="m1515 1148-163-81-139-73 5-55 113 1 94 63-8 8 108 125-10 12" transform="matrix(.99954 0 0 .99954 0 0)"/><path stroke="#09151e" stroke-width="1.8991259999999999" d="m2391 641-48 17-18-19 34-25 32 27"/><path fill="url(#b)" stroke="#232323" stroke-width="3.1" d="m2392 642-48 16-18-18 34-25 32 27" transform="matrix(.99954 0 0 .99954 0 0)"/><path stroke="#09151e" stroke-width="1.8991259999999999" d="m2026 925-31 15-35 12-30-50 53-22 11 6 32 39"/><path fill="url(#b)" stroke="#232323" stroke-width="3.1" d="m2027 926-31 14-35 12-30-49 53-23 11 6 32 40" transform="matrix(.99954 0 0 .99954 0 0)"/><path stroke="#09151e" stroke-width="1.8991259999999999" d="m2070 911-44 14-32-39-8-10 26-8-14-16 21-8 51 67"/><path fill="url(#b)" stroke="#232323" stroke-width="3.1" d="m2071 911-44 15-32-40-8-10 26-8-14-16 21-8 51 67" transform="matrix(.99954 0 0 .99954 0 0)"/><path stroke="#09151e" stroke-width="1.8991259999999999" d="m2012 833-32 13-21-30 31-14 22 31"/><path fill="url(#b)" stroke="#232323" stroke-width="3.1" d="m2013 833-32 14-21-31 31-14 22 31" transform="matrix(.99954 0 0 .99954 0 0)"/><path stroke="#09151e" stroke-width="1.8991259999999999" d="m2266 944-12-22-21 4-13-22-47 12 1 7-25 4-4-4-48 19 13 25-20 6 16 23 160-52"/><path fill="url(#b)" stroke="#232323" stroke-width="3.1" d="m2268 944-13-21-21 3-13-21-47 12 1 6-25 5-4-4-48 18 13 26-20 6 16 23 161-53" transform="matrix(.99954 0 0 .99954 0 0)"/><path stroke="#09151e" stroke-width="1.8991259999999999" d="m2231 1031-60 44-39-49-12-18 34-16 25 40 31-22 21 21"/><path fill="url(#b)" stroke="#232323" stroke-width="3.1" d="m2232 1031-60 44-39-49-12-17 34-17 25 41 31-22 21 20" transform="matrix(.99954 0 0 .99954 0 0)"/><path stroke="#09151e" stroke-width="1.8991259999999999" d="m2759 943-42 49-48-27-10-5 42-45 58 28"/><path fill="url(#b)" stroke="#232323" stroke-width="3.1" d="m2760 943-42 49-48-26-9-6 41-45 58 28" transform="matrix(.99954 0 0 .99954 0 0)"/><path stroke="#09151e" stroke-width="1.8991259999999999" d="m2872 918-60-32 39-37 57 32-36 37"/><path fill="url(#b)" stroke="#232323" stroke-width="3.1" d="m2874 919-61-33 39-37 58 33-36 37" transform="matrix(.99954 0 0 .99954 0 0)"/><path stroke="#09151e" stroke-width="1.8991259999999999" d="m2804 888-59-29 48-43 58 33-47 39"/><path fill="url(#b)" stroke="#232323" stroke-width="3.1" d="m2806 888-59-28 48-43 57 32-46 39" transform="matrix(.99954 0 0 .99954 0 0)"/><path stroke="#09151e" stroke-width="1.8991259999999999" d="m2759 943 45-55-59-29-44 56 58 28"/><path fill="url(#b)" stroke="#232323" stroke-width="3.1" d="m2760 943 46-55-59-28-45 55 58 28" transform="matrix(.99954 0 0 .99954 0 0)"/><path stroke="#09151e" stroke-width="1.8991259999999999" d="m2639 1010-9-4-8 6-46-24 41-44 52 21-12 10 10 6-28 29"/><path fill="url(#b)" stroke="#232323" stroke-width="3.1" d="m2640 1010-9-4-8 7-46-25 41-44 52 22-11 10 9 5-28 29" transform="matrix(.99954 0 0 .99954 0 0)"/><path stroke="#09151e" stroke-width="1.8991259999999999" d="m2584 1060-55-25 12-12-3-3 18-20 5 1 15-13 46 24-24 21 8 5-22 22"/><path fill="url(#b)" stroke="#232323" stroke-width="3.1" d="m2586 1060-56-24 12-13-3-3 19-19 5 1 14-14 46 25-24 21 8 5-21 21" transform="matrix(.99954 0 0 .99954 0 0)"/><path stroke="#09151e" stroke-width="1.8991259999999999" d="m2548 936-27-22 30-12 21 13-24 21"/><path fill="url(#b)" stroke="#232323" stroke-width="3.1" d="m2549 937-27-22 30-12 21 12-24 22" transform="matrix(.99954 0 0 .99954 0 0)"/><path stroke="#09151e" stroke-width="1.8991259999999999" d="m2548 936-33 34-5-3-30-20 13-10-6-5 34-18 27 22"/><path fill="url(#b)" stroke="#232323" stroke-width="3.1" d="m2549 937-33 33-5-3-30-20 13-9-6-5 34-18 27 22" transform="matrix(.99954 0 0 .99954 0 0)"/><path stroke="#09151e" stroke-width="1.8991259999999999" d="m2510 967-20 21-44-27-17-11 29-14 52 31"/><path fill="url(#b)" stroke="#232323" stroke-width="3.1" d="m2511 967-20 21-43-27-18-10 30-14 51 30" transform="matrix(.99954 0 0 .99954 0 0)"/><path stroke="#09151e" stroke-width="1.8991259999999999" d="m2467 1016-49-28 28-27 46 29-25 26"/><path fill="url(#b)" stroke="#232323" stroke-width="3.1" d="m2468 1017-48-28 28-28 45 29-25 27" transform="matrix(.99954 0 0 .99954 0 0)"/><path stroke="#09151e" stroke-width="1.8991259999999999" d="m2467 1016-23 20-45-31 16-18 52 29"/><path fill="url(#b)" stroke="#232323" stroke-width="3.1" d="m2468 1017-23 20-45-32 16-17 52 29" transform="matrix(.99954 0 0 .99954 0 0)"/><path stroke="#09151e" stroke-width="1.8991259999999999" d="m2653 834-48 26-33-43 48-23 33 40"/><path fill="url(#b)" stroke="#232323" stroke-width="3.1" d="m2654 835-48 25-33-42 48-24 33 41" transform="matrix(.99954 0 0 .99954 0 0)"/><path stroke="#09151e" stroke-width="1.8991259999999999" d="m2620 794-23-19-4-2-26-10-22 28 27 26 48-23"/><path fill="url(#b)" stroke="#232323" stroke-width="3.1" d="m2621 794-22-19-5-1-26-11-22 28 27 27 48-24" transform="matrix(.99954 0 0 .99954 0 0)"/><path stroke="#09151e" stroke-width="1.8991259999999999" d="m2593 773 40-43-28-15-38 48 26 10"/><path fill="url(#b)" stroke="#232323" stroke-width="3.1" d="m2594 774 40-43-28-15-38 47 26 11" transform="matrix(.99954 0 0 .99954 0 0)"/><path stroke="#09151e" stroke-width="1.8991259999999999" d="m2626 623-18 24-4-3-28-21-25-18 16-18 59 36"/><path fill="url(#b)" stroke="#232323" stroke-width="3.1" d="m2627 623-17 24-5-3-28-21-25-18 16-18 59 36" transform="matrix(.99954 0 0 .99954 0 0)"/><path stroke="#09151e" stroke-width="1.8991259999999999" d="m2549 614-26 25-43-25 29-23 40 23"/><path fill="url(#b)" stroke="#232323" stroke-width="3.1" d="m2550 614-25 25-44-24 29-24 40 23" transform="matrix(.99954 0 0 .99954 0 0)"/><path stroke="#09151e" stroke-width="1.8991259999999999" d="m1848 544-33 4-1-8-30 4v3l-26 3-6-34-13 2-12-62h-5l-5-33 75-10 7 32h8l5 26 35-4-10-59 58-8v-5l33-3 5 38-49 6 4 22-14 3v5l8 4 6 41-29 4 4 21-15 3v5"/><path fill="url(#b)" stroke="#232323" stroke-width="3.1" d="m1849 545-33 3-1-8-31 4 1 3-26 4-6-35-13 2-12-62h-5l-5-33 75-10 6 32h8l6 26 35-4-11-59 59-8v-4l33-4 5 39-49 5 3 23-13 2v5l8 4 6 41-29 4 4 22-15 2v6" transform="matrix(.99954 0 0 .99954 0 0)"/><path stroke="#09151e" stroke-width="1.8991259999999999" d="m1978 453-17-17-39 22 3 3-3 3v4l3 5 6 2 6-1 3 2 38-23"/><path fill="url(#b)" stroke="#232323" stroke-width="3.1" d="m1979 453-17-17-39 22 3 3-3 3v4l2 5 7 2 6-1 3 2 38-23" transform="matrix(.99954 0 0 .99954 0 0)"/><path stroke="#09151e" stroke-width="1.8991259999999999" d="m2636 607-40-21 23-31 44 21-27 31"/><path fill="url(#b)" stroke="#232323" stroke-width="3.1" d="m2638 607-41-21 23-31 44 21-26 31" transform="matrix(.99954 0 0 .99954 0 0)"/><path stroke="#09151e" stroke-width="1.8991259999999999" d="m2663 576 16-21-41-19-3-1-16 20 44 21"/><path fill="url(#b)" stroke="#232323" stroke-width="3.1" d="m2664 576 16-20-41-20-3-1-16 20 44 21" transform="matrix(.99954 0 0 .99954 0 0)"/><path stroke="#09151e" stroke-width="1.8991259999999999" d="m2679 555 71-84-42-23-29 34-11-4-13 16 12 6-29 36 41 19"/><path fill="url(#b)" stroke="#232323" stroke-width="3.1" d="m2680 556 72-85-43-23-29 35-11-5-12 16 11 7-29 35 41 20" transform="matrix(.99954 0 0 .99954 0 0)"/><path stroke="#09151e" stroke-width="1.8991259999999999" d="m2718 614 26-30 65 32-26 30-65-32"/><path fill="url(#b)" stroke="#232323" stroke-width="3.1" d="m2720 615 26-31 64 32-26 31-64-32" transform="matrix(.99954 0 0 .99954 0 0)"/><path stroke="#09151e" stroke-width="1.8991259999999999" d="m2569 687-35 41-7 12-12 9-7 1-8-7-15-23 26-16 5-4 30-22 23 9"/><path fill="url(#b)" stroke="#232323" stroke-width="3.1" d="m2571 687-36 42-7 12-12 9-7 1-8-8-15-22 27-16 5-4 29-23 24 9" transform="matrix(.99954 0 0 .99954 0 0)"/><path stroke="#09151e" stroke-width="1.8991259999999999" d="m2485 720-17-19 37-13 11 12-5 4-26 16"/><path fill="url(#b)" stroke="#232323" stroke-width="3.1" d="m2486 721-17-19 37-14 12 13-5 4-27 16" transform="matrix(.99954 0 0 .99954 0 0)"/><path stroke="#09151e" stroke-width="1.8991259999999999" d="m2517 684-8-20-27 9-33 11 16 18 52-18"/><path fill="url(#b)" stroke="#232323" stroke-width="3.1" d="m2518 684-7-20-28 9-33 11 16 18 52-18" transform="matrix(.99954 0 0 .99954 0 0)"/><path stroke="#09151e" stroke-width="1.8991259999999999" d="m2482 673-8-19-26-26-34 20 35 36 33-11"/><path fill="url(#b)" stroke="#232323" stroke-width="3.1" d="m2483 673-8-18-26-27-34 20 35 36 33-11" transform="matrix(.99954 0 0 .99954 0 0)"/><path stroke="#09151e" stroke-width="1.8991259999999999" d="m2517 641-43 13-26-26 26-15 43 28"/><path fill="url(#b)" stroke="#232323" stroke-width="3.1" d="m2518 641-43 14-26-27 26-14 43 27" transform="matrix(.99954 0 0 .99954 0 0)"/><path stroke="#09151e" stroke-width="1.8991259999999999" d="m2604 644-21 24-14-24-60 20-27 9-8-19 43-13 59-18 28 21"/><path fill="url(#b)" stroke="#232323" stroke-width="3.1" d="m2605 644-21 24-13-23-60 19-28 9-8-18 43-14 59-18 28 21" transform="matrix(.99954 0 0 .99954 0 0)"/><path stroke="#09151e" stroke-width="1.8991259999999999" d="m2472 577-22 22-6-3-11 10-31-21 8-9-6-4 25-24 43 29"/><path fill="url(#b)" stroke="#232323" stroke-width="3.1" d="m2473 577-22 22-6-3-11 11-31-21 9-10-7-4 25-24 43 29" transform="matrix(.99954 0 0 .99954 0 0)"/><path stroke="#09151e" stroke-width="1.8991259999999999" d="m1152 1399 2-56 2-48-32 1-274-3v-10l2-51-92-1-2 9-35 1 1 43-16 1-29 15-19 16-13 20-4 20-2 6 13 23 20 16 26 9 28 7v17l-1 29 110-2 11-1 1-62 223 2 18-1h62"/><path fill="url(#b)" stroke="#232323" stroke-width="3.1" d="m1152 1400 3-57 1-47h-32l-274-3v-9l2-51-92-1-1 9-36 1 1 43-16 1-28 15-20 16-13 19-4 20-2 6 14 24 20 15 25 10 29 6v17l-1 29 110-1 10-1 2-62 222 1h80" transform="matrix(.99954 0 0 .99954 0 0)"/><path stroke="#09151e" stroke-width="1.8991259999999999" d="m1174 1295 15-302 1-25-96-4-3 73 16 1-9 224 27 2-1 32 32-1h18"/><path fill="url(#b)" stroke="#232323" stroke-width="3.1" d="m1174 1295 16-301 1-26-97-4-3 73 17 2-9 223 26 2-1 32h32l18-1" transform="matrix(.99954 0 0 .99954 0 0)"/><path stroke="#09151e" stroke-width="1.8991259999999999" d="m831 1729-100 1h-11l1-84 6-183 110-2-3 143-3 125"/><path fill="url(#b)" stroke="#232323" stroke-width="3.1" d="m832 1730-101 1h-10l1-84 6-184 110-1-3 143-3 125" transform="matrix(.99954 0 0 .99954 0 0)"/><path stroke="#09151e" stroke-width="1.8991259999999999" d="m720 1730-682-3 7-370h99l-2 81-7 213 273-2 7-214h14v-22h17l56 1 36 1 190 2v17l-227 2-7 212 227-2-1 84"/><path fill="url(#b)" stroke="#232323" stroke-width="3.1" d="m721 1731-683-3 7-370h99l-2 81-7 213 273-2 7-214 14-1v-21l18-1 55 2h36l191 2v17l-227 2-7 213 227-2-1 84" transform="matrix(.99954 0 0 .99954 0 0)"/><path stroke="#09151e" stroke-width="1.8991259999999999" d="m2042 1877-17 18-39-20 15-19 41 21"/><path fill="url(#b)" stroke="#232323" stroke-width="3.1" d="m2043 1877-17 19-39-20 15-20 41 21" transform="matrix(.99954 0 0 .99954 0 0)"/><path stroke="#09151e" stroke-width="1.8991259999999999" d="m1995 1941 37-39-49-24-36 39 46 22 2 2"/><path fill="url(#b)" stroke="#232323" stroke-width="3.1" d="m1996 1941 37-38-49-24-36 39 46 22 2 1" transform="matrix(.99954 0 0 .99954 0 0)"/><path stroke="#09151e" stroke-width="1.8991259999999999" d="m2089 1845-15 15-53-31 14-16 54 32"/><path fill="url(#b)" stroke="#232323" stroke-width="3.1" d="m2090 1846-15 15-53-31 14-16 54 32" transform="matrix(.99954 0 0 .99954 0 0)"/><path stroke="#09151e" stroke-width="1.8991259999999999" d="m2078 1827-37-20 52-53 45 25-8 9-5-2-33 36-7-3-7 8"/><path fill="url(#b)" stroke="#232323" stroke-width="3.1" d="m2079 1828-37-20 52-53 45 25-8 9-5-3-33 37-7-3-7 8" transform="matrix(.99954 0 0 .99954 0 0)"/><path stroke="#09151e" stroke-width="1.8991259999999999" d="m2251 1773-40 41-111-59 36-43 115 61"/><path fill="url(#b)" stroke="#232323" stroke-width="3.1" d="m2252 1773-40 42-111-59 36-43 115 60" transform="matrix(.99954 0 0 .99954 0 0)"/><path stroke="#09151e" stroke-width="1.8991259999999999" d="m2065 1727-30-15 34-37 30 16-34 36"/><path fill="url(#b)" stroke="#232323" stroke-width="3.1" d="m2066 1728-30-15 34-38 30 17-34 36" transform="matrix(.99954 0 0 .99954 0 0)"/><path stroke="#09151e" stroke-width="1.8991259999999999" d="m2055 1738-31 32-43-23 33-32 41 23"/><path fill="url(#b)" stroke="#232323" stroke-width="3.1" d="m2056 1739-31 32-43-24 33-31 41 23" transform="matrix(.99954 0 0 .99954 0 0)"/><path stroke="#09151e" stroke-width="1.8991259999999999" d="m2004 1778-37 41-32-16 37-41 32 16"/><path fill="url(#b)" stroke="#232323" stroke-width="3.1" d="m2005 1779-38 41-32-16 38-41 32 16" transform="matrix(.99954 0 0 .99954 0 0)"/><path stroke="#09151e" stroke-width="1.8991259999999999" d="m1936 1870-52-22 11-14 6 2 11-11 10 3 11-11 32 14-10 12 3 2-22 25"/><path fill="url(#b)" stroke="#232323" stroke-width="3.1" d="m1937 1871-52-22 11-14 6 2 11-12 10 4 11-11 32 14-10 12 3 2-22 25" transform="matrix(.99954 0 0 .99954 0 0)"/><path stroke="#09151e" stroke-width="1.8991259999999999" d="m1892 1924-54-22 3-3-5-2 8-8 5 1 16-21-3-3 8-10 5 2 2-2 55 22-13 16-5-1-12 15 3 3-13 13"/><path fill="url(#b)" stroke="#232323" stroke-width="3.1" d="m1893 1925-54-22 2-3-4-2 8-8 4 1 17-21-3-3 8-10 5 2 2-2 55 22-13 16-5-1-12 15 3 2-13 14" transform="matrix(.99954 0 0 .99954 0 0)"/><path stroke="#09151e" stroke-width="1.8991259999999999" d="m1968 1976-51-27 25-33 51 23-12 13 11 5-15 17-9 2"/><path fill="url(#b)" stroke="#232323" stroke-width="3.1" d="m1968 1976-50-26 24-33 52 23-12 13 10 5-14 16-10 2" transform="matrix(.99954 0 0 .99954 0 0)"/><path stroke="#09151e" stroke-width="1.8991259999999999" d="m1958 1991-9-4-45-22 13-16 51 27-5 4 4 3-9 8"/><path fill="url(#b)" stroke="#232323" stroke-width="3.1" d="m1959 1992-9-4-45-22 13-16 50 26-4 5 4 3-9 8" transform="matrix(.99954 0 0 .99954 0 0)"/><path stroke="#09151e" stroke-width="1.8991259999999999" d="m1949 1987-18 21-44-21 17-22 45 22"/><path fill="url(#b)" stroke="#232323" stroke-width="3.1" d="m1950 1988-18 21-44-21 17-22 45 22" transform="matrix(.99954 0 0 .99954 0 0)"/><path stroke="#09151e" stroke-width="1.8991259999999999" d="m1922 2062-31-14-39-17 35-44 44 21 15 9-24 28 10 4-10 13"/><path fill="url(#b)" stroke="#232323" stroke-width="3.1" d="m1923 2062-31-13-39-17 35-44 44 21 15 9-24 28 10 4-10 12" transform="matrix(.99954 0 0 .99954 0 0)"/><path stroke="#09151e" stroke-width="1.8991259999999999" d="m1852 2085-33-12 33-42 39 17-15 20-9-3-15 20"/><path fill="url(#b)" stroke="#232323" stroke-width="3.1" d="m1853 2086-33-12 33-42 39 17-15 20-9-3-15 20" transform="matrix(.99954 0 0 .99954 0 0)"/><path stroke="#09151e" stroke-width="1.8991259999999999" d="m1845 1977-52-25 25-31 53 25-26 31"/><path fill="url(#b)" stroke="#232323" stroke-width="3.1" d="m1846 1978-53-25 26-31 53 25-26 31" transform="matrix(.99954 0 0 .99954 0 0)"/><path stroke="#09151e" stroke-width="1.8991259999999999" d="m1845 1977-25 30-51-24 24-31 52 25"/><path fill="url(#b)" stroke="#232323" stroke-width="3.1" d="m1846 1978-25 29-51-23 23-31 53 25" transform="matrix(.99954 0 0 .99954 0 0)"/><path stroke="#09151e" stroke-width="1.8991259999999999" d="m1719 1884-38-32-6-4 35-29 6 3 5-2 39 30-41 34"/><path fill="url(#b)" stroke="#232323" stroke-width="3.1" d="m1720 1884-38-31-6-5 35-29 5 4 6-3 39 31-41 33" transform="matrix(.99954 0 0 .99954 0 0)"/><path stroke="#09151e" stroke-width="1.8991259999999999" d="m1052 1424-177-2-26-24 223 2-20 24"/><path fill="url(#b)" stroke="#232323" stroke-width="3.1" d="m1052 1425-177-2-25-24 222 1-20 25" transform="matrix(.99954 0 0 .99954 0 0)"/><path stroke="#09151e" stroke-width="1.8991259999999999" d="m875 1422-6 156h55l2-21 9-9 15 1 11 10-2 21 86 2 7-158 20-24 18-1-11 209-88-1-96-2-61-1 3-143 11-1 1-62 26 24"/><path fill="url(#b)" stroke="#232323" stroke-width="3.1" d="m875 1423-6 156 55-1 2-21 9-8 15 1 12 9-2 22 86 2 6-158 20-25h19l-12 208h-87l-97-2-60-1 3-143 10-1 2-62 25 24" transform="matrix(.99954 0 0 .99954 0 0)"/><path stroke="#09151e" stroke-width="1.8991259999999999" d="m985 1733-97-2 7-126 96 2-6 126"/><path fill="url(#b)" stroke="#232323" stroke-width="3.1" d="m985 1733-97-2 7-125 97 2-7 125" transform="matrix(.99954 0 0 .99954 0 0)"/><path stroke="#09151e" stroke-width="1.8991259999999999" d="m888 1731-57-2 3-125 61 1-7 126"/><path fill="url(#b)" stroke="#232323" stroke-width="3.1" d="m888 1731-56-1 3-125 60 1-7 125" transform="matrix(.99954 0 0 .99954 0 0)"/><path stroke="#09151e" stroke-width="1.8991259999999999" d="m592 1932-57 6-2-15-3-17-3-19-3-33 55-7 13 85"/><path fill="url(#b)" stroke="#232323" stroke-width="3.1" d="m592 1933-57 6-2-15-3-17-2-19-4-33 55-7 13 85" transform="matrix(.99954 0 0 .99954 0 0)"/><path stroke="#09151e" stroke-width="1.8991259999999999" d="m527 1887-88 11 3-73v-6l30-4 47-4 4 40 1 3 3 33"/><path fill="url(#b)" stroke="#232323" stroke-width="3.1" d="m528 1888-89 11 3-73 1-7 29-3 47-5 5 41v3l4 33" transform="matrix(.99954 0 0 .99954 0 0)"/><path stroke="#09151e" stroke-width="1.8991259999999999" d="m579 1847 1-51v-12l-64-4 3 31 4 40 56-4"/><path fill="url(#b)" stroke="#232323" stroke-width="3.1" d="m579 1848 1-51v-12l-64-4 3 30 5 41 55-4" transform="matrix(.99954 0 0 .99954 0 0)"/><path stroke="#09151e" stroke-width="1.8991259999999999" d="m580 1784 4-28h-23l-2 4-14-1-5-5-21-1-3 27 64 4"/><path fill="url(#b)" stroke="#232323" stroke-width="3.1" d="m580 1785 4-28-22-1-3 5-14-1-5-5-21-1-3 27 64 4" transform="matrix(.99954 0 0 .99954 0 0)"/><path stroke="#09151e" stroke-width="1.8991259999999999" d="m516 1780 3 31-47 4-2-34 46-1"/><path fill="url(#b)" stroke="#232323" stroke-width="3.1" d="m516 1781 3 30-47 5-2-34 46-1" transform="matrix(.99954 0 0 .99954 0 0)"/><path stroke="#09151e" stroke-width="1.8991259999999999" d="m516 1780-46 1h-4l-4-27 57-1-3 27"/><path fill="url(#b)" stroke="#232323" stroke-width="3.1" d="m516 1781-46 1h-3l-5-27 57-1-3 27" transform="matrix(.99954 0 0 .99954 0 0)"/><path stroke="#09151e" stroke-width="1.8991259999999999" d="m472 1815-30 4v-40l1-28 19 3 4 27h4l2 34"/><path fill="url(#b)" stroke="#232323" stroke-width="3.1" d="m472 1816-29 3-1-17v-22l1-28 19 3 5 27h3l2 34" transform="matrix(.99954 0 0 .99954 0 0)"/><path stroke="#09151e" stroke-width="1.8991259999999999" d="M442 1779h-36l1-28h36l-1 28"/><path fill="url(#b)" stroke="#232323" stroke-width="3.1" d="M442 1780h-36l1-28h36l-1 28" transform="matrix(.99954 0 0 .99954 0 0)"/><path stroke="#09151e" stroke-width="1.8991259999999999" d="M442 1825h-38l1-24h37v24"/><path fill="url(#b)" stroke="#232323" stroke-width="3.1" d="M442 1826h-38l1-24h37l1 17-1 7" transform="matrix(.99954 0 0 .99954 0 0)"/><path stroke="#09151e" stroke-width="1.8991259999999999" d="m437 1920-92-12 2-35 4-55 1-11 31-1v22l21-3h38l-3 73-2 22"/><path fill="url(#b)" stroke="#232323" stroke-width="3.1" d="m437 1921-92-12 3-35 3-55 1-11 31-1v22l21-3h38l-3 73-2 22" transform="matrix(.99954 0 0 .99954 0 0)"/><path stroke="#09151e" stroke-width="1.8991259999999999" d="m383 1806 3-55h-30l-4 56 31-1"/><path fill="url(#b)" stroke="#232323" stroke-width="3.1" d="m383 1807 3-55h-30l-4 56 31-1" transform="matrix(.99954 0 0 .99954 0 0)"/><path stroke="#09151e" stroke-width="1.8991259999999999" d="M233 1845h-49l3-93h49l-3 93"/><path fill="url(#b)" stroke="#232323" stroke-width="3.1" d="M233 1846h-49l3-93h50l-4 93" transform="matrix(.99954 0 0 .99954 0 0)"/><path stroke="#09151e" stroke-width="1.8991259999999999" d="M347 1873h-51l5-55h50l-4 55"/><path fill="url(#b)" stroke="#232323" stroke-width="3.1" d="M348 1874h-52l5-55h50l-3 55" transform="matrix(.99954 0 0 .99954 0 0)"/><path stroke="#09151e" stroke-width="1.8991259999999999" d="M649 1820h-45v-22l-24-2v-12l4-28 82-1 2 26-10 16h-11l2 23"/><path fill="url(#b)" stroke="#232323" stroke-width="3.1" d="M649 1821h-45v-23l-24-1v-12l4-28 82-1 3 26-10 16h-11l1 23" transform="matrix(.99954 0 0 .99954 0 0)"/><path stroke="#09151e" stroke-width="1.8991259999999999" d="M649 1820h81v-63l-64-2 2 26-10 16h-11l2 23"/><path fill="url(#b)" stroke="#232323" stroke-width="3.1" d="M649 1821h81l1-64-65-1 3 26-10 16h-11l1 23" transform="matrix(.99954 0 0 .99954 0 0)"/><path stroke="#09151e" stroke-width="1.8991259999999999" d="M726 1884h-68l-1-14-38 2-1-40h39l1-12h72l-3 54-1 10"/><path fill="url(#b)" stroke="#232323" stroke-width="3.1" d="M727 1885h-68l-2-14-38 1v-39h38l1-12h72l-3 54v10" transform="matrix(.99954 0 0 .99954 0 0)"/><path stroke="#09151e" stroke-width="1.8991259999999999" d="m725 1923-4-1h-69v-8l-51-1-1-29 18 1 3-4 27-1v4h78l-1 39"/><path fill="url(#b)" stroke="#232323" stroke-width="3.1" d="m725 1924-4-1h-69v-8l-51-1-1-29 18 1 3-4 27-1v4h79l-2 39" transform="matrix(.99954 0 0 .99954 0 0)"/><path stroke="#09151e" stroke-width="1.8991259999999999" d="m716 1949-72-1-37-4-6-31 51 1v8h69l-5 27"/><path fill="url(#b)" stroke="#232323" stroke-width="3.1" d="m717 1950-73-1-37-4-6-31 51 1v8h69l-4 27" transform="matrix(.99954 0 0 .99954 0 0)"/><path stroke="#09151e" stroke-width="1.8991259999999999" d="m706 1996-65-1-15-3-5-24-16-1-2-21 4-2 37 4 72 1-10 47"/><path fill="url(#b)" stroke="#232323" stroke-width="3.1" d="m706 1997-65-1-14-3-6-24-16-1-1-21 3-2 37 4 73 1-11 47" transform="matrix(.99954 0 0 .99954 0 0)"/><path stroke="#09151e" stroke-width="1.8991259999999999" d="M874 1923H725l1-39 1-10h149l-2 49"/><path fill="url(#b)" stroke="#232323" stroke-width="3.1" d="M875 1924H725l2-39v-10h7l126-1h17l-2 50" transform="matrix(.99954 0 0 .99954 0 0)"/><path stroke="#09151e" stroke-width="1.8991259999999999" d="M911 1923h-37l2-49 36 1-1 45v3"/><path fill="url(#b)" stroke="#232323" stroke-width="3.1" d="M912 1924h-37l2-50 36 1-1 46v3" transform="matrix(.99954 0 0 .99954 0 0)"/><path stroke="#09151e" stroke-width="1.8991259999999999" d="m970 1917-36 2-23 1 1-45 62-1-4 43"/><path fill="url(#b)" stroke="#232323" stroke-width="3.1" d="m970 1918-35 2-23 1 1-46h62l-5 43" transform="matrix(.99954 0 0 .99954 0 0)"/><path stroke="#09151e" stroke-width="1.8991259999999999" d="m1012 1944-39-6 5-19-8-2 4-43 60 1 11 15-33 54"/><path fill="url(#b)" stroke="#232323" stroke-width="3.1" d="m1013 1945-40-6 5-19-8-2 5-43 59 1 11 14-32 55" transform="matrix(.99954 0 0 .99954 0 0)"/><path stroke="#09151e" stroke-width="1.8991259999999999" d="m1012 1944-20 31-77-29 19-27 36-2 8 2-5 19 39 6"/><path fill="url(#b)" stroke="#232323" stroke-width="3.1" d="m1013 1945-21 31-77-29 20-27 35-2 8 2-5 19 40 6" transform="matrix(.99954 0 0 .99954 0 0)"/><path stroke="#09151e" stroke-width="1.8991259999999999" d="m992 1975-21 31-77-28 21-32 77 29"/><path fill="url(#b)" stroke="#232323" stroke-width="3.1" d="m992 1976-20 31-78-28 21-32 77 29" transform="matrix(.99954 0 0 .99954 0 0)"/><path stroke="#09151e" stroke-width="1.8991259999999999" d="m971 2006-19 42-76-31-7-3 25-36 77 28"/><path fill="url(#b)" stroke="#232323" stroke-width="3.1" d="m972 2007-19 42-76-31-7-3 24-36 78 28" transform="matrix(.99954 0 0 .99954 0 0)"/><path stroke="#09151e" stroke-width="1.8991259999999999" d="m939 2078-69-34 3-4-12-7 15-16 76 31-13 30"/><path fill="url(#b)" stroke="#232323" stroke-width="3.1" d="m939 2079-69-34 3-5-11-6 15-16 76 31-14 30" transform="matrix(.99954 0 0 .99954 0 0)"/><path stroke="#09151e" stroke-width="1.8991259999999999" d="m939 2078-13 21-12 3-74-36 30-22 69 34"/><path fill="url(#b)" stroke="#232323" stroke-width="3.1" d="m939 2079-13 21-12 3-73-36 29-22 69 34" transform="matrix(.99954 0 0 .99954 0 0)"/><path stroke="#09151e" stroke-width="1.8991259999999999" d="m840 2066-37-19 41-40 25 7 7 3-15 16 12 7-3 4-30 22"/><path fill="url(#b)" stroke="#232323" stroke-width="3.1" d="m841 2067-38-19 41-40 26 7 7 3-15 16 11 6-3 5-29 22" transform="matrix(.99954 0 0 .99954 0 0)"/><path stroke="#09151e" stroke-width="1.8991259999999999" d="m1719 1884-53 42-37-29 12-10 40-35 38 32"/><path fill="url(#b)" stroke="#232323" stroke-width="3.1" d="m1720 1884-53 43-37-29 12-10 40-35 38 31" transform="matrix(.99954 0 0 .99954 0 0)"/><path stroke="#09151e" stroke-width="1.8991259999999999" d="m1666 1926-32 26-38-27 19-16-9-6-11 9-26-19 18-13 20 15 8-5 12 8 39 28"/><path fill="url(#b)" stroke="#232323" stroke-width="3.1" d="m1667 1927-33 26-37-27 19-16-9-6-12 9-26-19 19-13 20 15 8-6 12 9 39 28" transform="matrix(.99954 0 0 .99954 0 0)"/><path stroke="#09151e" stroke-width="1.8991259999999999" d="m1641 1887-17-14 19-16-15-10-30 26 17 17 12 8 14-11"/><path fill="url(#b)" stroke="#232323" stroke-width="3.1" d="m1642 1888-17-14 19-16-15-10-30 26 17 16 12 9 14-11" transform="matrix(.99954 0 0 .99954 0 0)"/><path stroke="#09151e" stroke-width="1.8991259999999999" d="m1663 1777-27 25-21 13-20-15-7-5-8 4-8-6 5-5-9-7 6-4-29-28 47-27 71 55"/><path fill="url(#b)" stroke="#232323" stroke-width="3.1" d="m1664 1778-27 24-21 14-21-15-6-5-9 4-8-6 6-5-10-7 6-4-29-28 48-27 71 55" transform="matrix(.99954 0 0 .99954 0 0)"/><path stroke="#09151e" stroke-width="1.8991259999999999" d="m1565 1805-14 9-30 18-43-40 67-43 29 28-6 4 9 7-5 5-11 7 4 5"/><path fill="url(#b)" stroke="#232323" stroke-width="3.1" d="m1565 1806-13 8-30 19-43-40 66-43 29 28-6 4 10 7-6 5-11 7 4 5" transform="matrix(.99954 0 0 .99954 0 0)"/><path stroke="#09151e" stroke-width="1.8991259999999999" d="m1523 1835-59 33-39-41 53-35 45 43"/><path fill="url(#b)" stroke="#232323" stroke-width="3.1" d="m1523 1836-59 33-39-41 54-35 44 43" transform="matrix(.99954 0 0 .99954 0 0)"/><path stroke="#09151e" stroke-width="1.8991259999999999" d="m1595 1800-35 23-9-9 14-9-4-5 11-7 8 6 8-4 7 5"/><path fill="url(#b)" stroke="#232323" stroke-width="3.1" d="m1595 1801-34 23-9-10 13-8-4-5 11-7 8 6 9-4 6 5" transform="matrix(.99954 0 0 .99954 0 0)"/><path stroke="#09151e" stroke-width="1.8991259999999999" d="M1212 993h-23l-15 302h-18l-4 104h18l-15 343-7 5-27 72 20-14 80-59 39-30 143-148 270-281 4-4-28-13-335-159 20-24 18-21-140-73"/><path fill="url(#b)" stroke="#232323" stroke-width="3.1" d="M1213 994h-23l-16 301-18 1-4 104h19l-15 342-8 6-27 72 20-15 80-59 40-29 143-149 270-280 3-4-28-14-335-158 21-25 17-20-139-73" transform="matrix(.99954 0 0 .99954 0 0)"/><path stroke="#09151e" stroke-width="1.8991259999999999" d="m2376 722-64 15-6-48 36-16 21-8 32-1-19 58"/><path fill="url(#b)" stroke="#232323" stroke-width="3.1" d="m2377 722-64 16-5-48 35-17 21-8 32-1-19 58" transform="matrix(.99954 0 0 .99954 0 0)"/><g stroke="#220a0a" stroke-width="12.5"><path stroke-width="12.49425" d="m2246 1517 25 21 13 31 13 24 10 63M2246 1517l-166-78-186-81M2619 906l43-17 38-21 37-32 737-806M949 2103l7-19 134-229M2509 778l-467 161-222 87-62 29-182 82M1090 1855l45-32 85-59 50-34 148-152 280-289 17-17"/><path stroke-width="12.49425" d="m2394 648 115 130 30 32 50 52 30 44M3367 147l10 9 103 97 19 38 1 40-199 342-147 259-63 61-74 47-135 62-126 57-476 324-18 16-16 18M2246 1517l-32 63-422 484M2882 1102l153 31"/><path stroke-width="12.49425" d="m2595 873-38 14-156 72-97 53-323 238-80 123-26 139-54 90-74 44-187 64-173 107-108 65-101 46M2619 906l-24 16-18 15-17 16-443 444-28 32-9 10M2394 648l-121 37-65 10-159-21-10-11 22-35 48-43 42-27 1-20-20-7-85 17-145 47-18 15-31 18-29 8-30 8h-39l-32-11-19-29-1-49 10-39 2-36-11-31-33-32-66-9M1605 408l-504 77M1715 1272l-44-43-95-92M1330 906l-28-25-25-34-19-38-140-289-17-35-37-76-13-38-7-35-4-36"/><path stroke-width="12.49425" d="m1894 1358-126-61-53-25M2509 778l109-120 194-235M1671 1229l-106-31-216-103M1576 1137l-56-62-68-73-25-22-97-74M1349 1095l-15-8-75-41-63-14M2784 785l95 54M1563 2023l83-64 75-70 51-37 102-85 305-203 50-35 17-12"/></g><g fill="#d5b43c" stroke="#232323"><path d="M1166 1343a12 12 0 1 1-24 0 12 12 0 0 1 24 0M2926 785a12 12 0 1 1-23 0 12 12 0 0 1 23 0" vector-effect="non-scaling-stroke"/></g></g></svg>
