<svg xmlns="http://www.w3.org/2000/svg" viewBox="0 0 3507 2007"><defs><pattern id="b" width="8" height="8" x="0" y="0" patternUnits="userSpaceOnUse"><path fill="#bebebe" d="M0 0h8v8H0z" mask="url(#a)"/></pattern><mask id="a" width="8" height="8" x="0" y="0" fill="#fff" stroke="none"><path d="M3 0h1v1H3zM7 0h1v1H7zM1 2h1v1H1zM5 2h1v1H5zM3 4h1v1H3zM7 4h1v1H7zM1 6h1v1H1zM5 6h1v1H5z"/></mask></defs><g fill="none" fill-rule="evenodd" stroke="#000" stroke-linecap="square" stroke-linejoin="bevel" font-family="MS Shell Dlg 2" font-size="32.8" font-weight="400"><path fill="#fff" stroke="none" d="M-2-2h3510v2011H-2V-2"/><path fill="#fff" stroke="none" d="M0 0h3506v2007H0V0"/><path fill="none" fill-opacity="0" stroke="none" d="M0 0h3506v2007H0z"/><path stroke="#09151e" stroke-width="1.9" d="m426 660 124 146 305-236-61-70-189 147-65-76-114 89"/><path fill="url(#b)" stroke="#232323" stroke-width="3.1" d="m427 660 123 147 306-236-61-71-189 147-66-75-113 88"/><path stroke="#09151e" stroke-width="1.9" d="M550 806 237 438l-23 20-55 47-49 38 230 266 60 29 150-32"/><path fill="url(#b)" stroke="#232323" stroke-width="3.1" d="M550 807 237 438l-23 20-55 47-49 38 230 267 61 29 149-32"/><path stroke="#09151e" stroke-width="1.9" d="M1594 978v-76l-74-27-2 9-39-14 1-14-57-22-8 80 35 13 25 9 75 27 44 15"/><path fill="url(#b)" stroke="#232323" stroke-width="3.1" d="M1595 979v-77l-75-27-1 10-39-14 1-15-58-22-7 81 34 12 26 9 75 27 44 16"/><path stroke="#09151e" stroke-width="1.9" d="m1369 1338-69-2-5-48 112-83 11 2 34 109-91-6 8 28"/><path fill="url(#b)" stroke="#232323" stroke-width="3.1" d="m1370 1339-69-2-5-48 112-84 11 3 34 109-91-6 8 28"/><path stroke="#09151e" stroke-width="1.9" d="m1326 886-114-409 37-1h30l53 202-6 208"/><path fill="url(#b)" stroke="#232323" stroke-width="3.1" d="m1327 887-115-410h37l31-1 52 202-5 209"/><path stroke="#09151e" stroke-width="1.9" d="m1433 1098 64-5-17-73-71 1 24 77"/><path fill="url(#b)" stroke="#232323" stroke-width="3.1" d="m1433 1098 65-4-17-73h-72l24 77"/><path stroke="#09151e" stroke-width="1.9" d="m2385 1225 19-69-76-41-27 63 84 47"/><path fill="url(#b)" stroke="#232323" stroke-width="3.1" d="m2386 1225 19-68-76-42-27 64 84 46"/><path stroke="#09151e" stroke-width="1.9" d="m2328 1115-73-39-28 57 74 45 27-63"/><path fill="url(#b)" stroke="#232323" stroke-width="3.1" d="m2329 1115-73-38-28 56 74 46 27-64"/><path stroke="#09151e" stroke-width="1.9" d="m2255 1076-54-30-25 56 51 31 28-57"/><path fill="url(#b)" stroke="#232323" stroke-width="3.1" d="m2256 1077-54-30-26 56 52 30 28-56"/><path stroke="#09151e" stroke-width="1.9" d="m2201 1046-36-22-21 60 32 18 25-56"/><path fill="url(#b)" stroke="#232323" stroke-width="3.1" d="m2202 1047-36-23-21 61 31 18 26-56"/><path stroke="#09151e" stroke-width="1.9" d="m2165 1024-20-13-25 60 24 13 21-60"/><path fill="url(#b)" stroke="#232323" stroke-width="3.1" d="m2166 1024-20-13-25 60 24 14 21-61"/><path stroke="#09151e" stroke-width="1.9" d="m2145 1011 17-36-26-17-22 53-21 47 27 13 25-60"/><path fill="url(#b)" stroke="#232323" stroke-width="3.1" d="m2146 1011 17-36-26-16-22 52-21 48 27 12 25-60"/><path stroke="#09151e" stroke-width="1.9" d="m2114 1011-38-20-1 3-16 43 34 21 21-47"/><path fill="url(#b)" stroke="#232323" stroke-width="3.1" d="m2115 1011-38-20-1 4-16 43 34 21 21-48"/><path stroke="#09151e" stroke-width="1.9" d="m2075 994-65-37-17 44 66 36 16-43"/><path fill="url(#b)" stroke="#232323" stroke-width="3.1" d="m2076 995-65-37-17 43 66 37 16-43"/><path stroke="#09151e" stroke-width="1.9" d="m2010 957 10-26-36-21-23 71 32 20 17-44"/><path fill="url(#b)" stroke="#232323" stroke-width="3.1" d="m2011 958 10-27-36-21-23 72 32 19 17-43"/><path stroke="#09151e" stroke-width="1.9" d="m1842 853-80-40-15 52 32 16 47 24 16-52"/><path fill="url(#b)" stroke="#232323" stroke-width="3.1" d="m1842 854-79-41-15 52 32 17 47 24 15-52"/><path stroke="#09151e" stroke-width="1.9" d="m1747 865-61-27 36-83 30 12-10 38 20 8-15 52"/><path fill="url(#b)" stroke="#232323" stroke-width="3.1" d="m1748 865-61-26 36-84 30 12-10 38 20 8-15 52"/><path stroke="#09151e" stroke-width="1.9" d="m1666 830 50-109-63-39-1 5-46 117 60 26"/><path fill="url(#b)" stroke="#232323" stroke-width="3.1" d="m1667 830 50-109-63-38-2 4-45 117 60 26"/><path stroke="#09151e" stroke-width="1.9" d="m1606 804-64-28 21-62 21-63 68 36-46 117"/><path fill="url(#b)" stroke="#232323" stroke-width="3.1" d="m1607 804-64-28 21-62 21-62 67 35-45 117"/><path stroke="#09151e" stroke-width="1.9" d="m1542 776-38-17 13-66 46 21-21 62"/><path fill="url(#b)" stroke="#232323" stroke-width="3.1" d="m1543 776-39-17 13-65 47 20-21 62"/><path stroke="#09151e" stroke-width="1.9" d="m1504 759-46-20 25-122 45 20-11 56-13 66"/><path fill="url(#b)" stroke="#232323" stroke-width="3.1" d="m1504 759-45-19 24-122 46 19-12 57-13 65"/><path stroke="#09151e" stroke-width="1.9" d="m1458 739-27-14 30-113 22 5-25 122"/><path fill="url(#b)" stroke="#232323" stroke-width="3.1" d="m1459 740-27-15 30-112 21 5-24 122"/><path stroke="#09151e" stroke-width="1.9" d="m1431 725-30-15 21-115 39 17-30 113"/><path fill="url(#b)" stroke="#232323" stroke-width="3.1" d="m1432 725-30-15 21-115 39 18-30 112"/><path stroke="#09151e" stroke-width="1.9" d="m1603 882 20 7-4 93-19-8 3-92"/><path fill="url(#b)" stroke="#232323" stroke-width="3.1" d="m1604 882 19 7-3 93-19-7 3-93"/><path stroke="#09151e" stroke-width="1.9" d="m1623 889 67 24-4 91-67-22 4-93"/><path fill="url(#b)" stroke="#232323" stroke-width="3.1" d="m1623 889 68 24-4 91-67-22 3-93"/><path stroke="#09151e" stroke-width="1.9" d="m1690 913 75 26 4 65 2 33-83-21-2-12 4-91"/><path fill="url(#b)" stroke="#232323" stroke-width="3.1" d="m1691 913 74 27 5 64 2 34-83-21-2-13 4-91"/><path stroke="#09151e" stroke-width="1.9" d="m1765 939 46 17 1 64-43-16-4-65"/><path fill="url(#b)" stroke="#232323" stroke-width="3.1" d="m1765 940 47 16 1 64-43-16-5-64"/><path stroke="#09151e" stroke-width="1.9" d="m1811 956 58 26-10 55-47-17-1-64"/><path fill="url(#b)" stroke="#232323" stroke-width="3.1" d="m1812 956 58 27-11 54-46-17-1-64"/><path stroke="#09151e" stroke-width="1.9" d="m1869 982 51 27-24 82-45-20 8-34 10-55"/><path fill="url(#b)" stroke="#232323" stroke-width="3.1" d="m1870 983 51 26-25 83-44-20 7-35 11-54"/><path stroke="#09151e" stroke-width="1.9" d="m2006 1221 42 11 18-43-37-23-23 55"/><path fill="url(#b)" stroke="#232323" stroke-width="3.1" d="m2007 1221 42 12 17-43-36-24-23 55"/><path stroke="#09151e" stroke-width="1.9" d="m2303 1238 68 39-10 80-54-20 4-24-27-15 19-60"/><path fill="url(#b)" stroke="#232323" stroke-width="3.1" d="m2304 1239 68 38-10 81-54-20 4-24-27-15 19-60"/><path stroke="#09151e" stroke-width="1.9" d="m1882 1190-79-18 11-77 82 24-14 71"/><path fill="url(#b)" stroke="#232323" stroke-width="3.1" d="m1883 1191-80-19 12-76 82 23-14 72"/><path stroke="#09151e" stroke-width="1.9" d="m1814 1095-37-6-11 75 37 8 11-77"/><path fill="url(#b)" stroke="#232323" stroke-width="3.1" d="m1815 1096-37-7-11 75 36 8 12-76"/><path stroke="#09151e" stroke-width="1.9" d="m1707 1145-60-11-10-56-11-54 76 12 5 109"/><path fill="url(#b)" stroke="#232323" stroke-width="3.1" d="m1707 1146-59-12-11-56-10-53 75 11 5 110"/><path stroke="#09151e" stroke-width="1.9" d="M1637 1078h-44l1 19-22 2-20-79v-22l3-24 61 14 10 36 11 54"/><path fill="url(#b)" stroke="#232323" stroke-width="3.1" d="M1637 1078h-43l1 20-22 2-20-80v-22l2-23 62 13 10 37 10 53"/><path stroke="#09151e" stroke-width="1.9" d="M1552 1020h-72l17 73 18 43 65-8-8-29-20-79"/><path fill="url(#b)" stroke="#232323" stroke-width="3.1" d="m1553 1020-72 1 17 73 17 42 66-7-8-29-20-80"/><path stroke="#09151e" stroke-width="1.9" d="m1497 1093 18 43-69 12-13-50 64-5"/><path fill="url(#b)" stroke="#232323" stroke-width="3.1" d="m1498 1094 17 42-68 13-14-51 65-4"/><path stroke="#09151e" stroke-width="1.9" d="m1352 1157 51-6-44-130-75-7 16 67 32 4 20 72"/><path fill="url(#b)" stroke="#232323" stroke-width="3.1" d="m1353 1158 50-7-43-129-75-7 16 67 31 4 21 72"/><path stroke="#09151e" stroke-width="1.9" d="m1284 1014-57-1 22 95 58 1-7-28-16-67"/><path fill="url(#b)" stroke="#232323" stroke-width="3.1" d="m1285 1015-58-1 23 95h58l-7-27-16-67"/><path stroke="#09151e" stroke-width="1.9" d="m1227 1013-46-2 15 59 7 39 46-1-22-95"/><path fill="url(#b)" stroke="#232323" stroke-width="3.1" d="m1227 1014-46-3 16 60 7 39 46-1-23-95"/><path stroke="#09151e" stroke-width="1.9" d="m1181 1011-80-2 17 68 10 42h43l-12-48 37-1-15-59"/><path fill="url(#b)" stroke="#232323" stroke-width="3.1" d="m1181 1011-79-1 16 67 10 43 44-1-13-48h38l-16-60"/><path stroke="#09151e" stroke-width="1.9" d="m1101 1009-46-1 16 68 47 1-17-68"/><path fill="url(#b)" stroke="#232323" stroke-width="3.1" d="m1102 1010-46-2 15 68 47 1-16-67"/><path stroke="#09151e" stroke-width="1.9" d="m1055 1008-79-3 16 70 5 21 79 2-5-22-16-68"/><path fill="url(#b)" stroke="#232323" stroke-width="3.1" d="m1056 1008-80-2 16 69 5 22 79 2-5-23-15-68"/><path stroke="#09151e" stroke-width="1.9" d="m976 1005-33-2 11 71 38 1-16-70"/><path fill="url(#b)" stroke="#232323" stroke-width="3.1" d="m976 1006-33-3 12 72h37l-16-69"/><path stroke="#09151e" stroke-width="1.9" d="m943 1003-51-5 17 104 51 5-6-33-11-71"/><path fill="url(#b)" stroke="#232323" stroke-width="3.1" d="m943 1003-50-5 17 104 50 5-5-32-12-72"/><path stroke="#09151e" stroke-width="1.9" d="m882 998-51-6 7 67 53 6-9-67"/><path fill="url(#b)" stroke="#232323" stroke-width="3.1" d="m882 998-51-6 7 67 54 7-10-68"/><path stroke="#09151e" stroke-width="1.9" d="m831 992-30-5 9 85 30 5-2-18-7-67"/><path fill="url(#b)" stroke="#232323" stroke-width="3.1" d="m831 992-30-5 9 85 30 5-2-18-7-67"/><path stroke="#09151e" stroke-width="1.9" d="m801 987-56-13 3 65v29l61 18 1-14-9-85"/><path fill="url(#b)" stroke="#232323" stroke-width="3.1" d="m801 987-55-13 2 65v30l62 17v-14l-9-85"/><path stroke="#09151e" stroke-width="1.9" d="m745 974-53-14 2 68 54 11-3-65"/><path fill="url(#b)" stroke="#232323" stroke-width="3.1" d="m746 974-53-13 1 67 54 11-2-65"/><path stroke="#09151e" stroke-width="1.9" d="m692 960-41-10 3 112 41 1-1-35-2-68"/><path fill="url(#b)" stroke="#232323" stroke-width="3.1" d="m693 961-42-11 4 112 40 2-1-36-1-67"/><path stroke="#09151e" stroke-width="1.9" d="m651 950-105-27v78l36 9v26l22 6v-33l11 3v40l39 10-3-112"/><path fill="url(#b)" stroke="#232323" stroke-width="3.1" d="m651 950-105-26v78l36 9v26l22 5v-33l11 3v40l40 10-4-112"/><path stroke="#09151e" stroke-width="1.9" d="m546 923-60-15-4 84 59 16 5-7v-78"/><path fill="url(#b)" stroke="#232323" stroke-width="3.1" d="m546 924-60-15-3 84 58 15 5-6v-78"/><path stroke="#09151e" stroke-width="1.9" d="m486 908-46-23-27 74 69 33 4-84"/><path fill="url(#b)" stroke="#232323" stroke-width="3.1" d="m486 909-46-24-27 75 70 33 3-84"/><path stroke="#09151e" stroke-width="1.9" d="m440 885-42-21-19 3 21 87 13 5 27-74"/><path fill="url(#b)" stroke="#232323" stroke-width="3.1" d="m440 885-42-21-19 3 21 87 13 6 27-75"/><path stroke="#09151e" stroke-width="1.9" d="m379 867-71 12 29 77 63-2-21-87"/><path fill="url(#b)" stroke="#232323" stroke-width="3.1" d="m379 867-71 12 29 78 63-3-21-87"/><path stroke="#09151e" stroke-width="1.9" d="m308 879-71 10 31 79 69-12-29-77"/><path fill="url(#b)" stroke="#232323" stroke-width="3.1" d="m308 879-71 10 31 80 69-12-29-78"/><path stroke="#09151e" stroke-width="1.9" d="m237 889-51 7 31 83 5 10 51-8-5-13-31-79"/><path fill="url(#b)" stroke="#232323" stroke-width="3.1" d="m237 889-51 7 31 83 5 10 51-8-5-12-31-80"/><path stroke="#09151e" stroke-width="1.9" d="m186 896-28 3 28 77 3 6 28-3-31-83"/><path fill="url(#b)" stroke="#232323" stroke-width="3.1" d="m186 896-28 4 28 76 3 7 28-4-31-83"/><path stroke="#09151e" stroke-width="1.9" d="m158 899-45 8 16 53h10l6 18 41-2-28-77"/><path fill="url(#b)" stroke="#232323" stroke-width="3.1" d="m158 900-45 7 16 53h10l6 18 41-2-28-76"/><path stroke="#09151e" stroke-width="1.9" d="m2108 1559 106-14 163 92 217 130 190-2 172-32 171-3-29-75-28-117 153 10 189 3-2 218-86 31-152 32-423 83-138-16-197-84-135-64-133-37-38-155"/><path fill="url(#b)" stroke="#232323" stroke-width="3.1" d="m2109 1560 106-14 163 92 217 130 191-3 171-31 172-3-30-75-27-117 153 9 189 3-2 219-86 30-152 32-424 84-138-16-197-84-135-64-133-37-38-155"/><path stroke="#09151e" stroke-width="1.9" d="m1613 412-14-172-78-11-1-19-54-9 1 31-6 5 2 24-17 9 8 132 57 48 21-26-2-6 2-8 16 6v-13l29 8v-9l36 10"/><path fill="url(#b)" stroke="#232323" stroke-width="3.1" d="m1614 412-14-172-78-11-2-19-54-9 2 31-6 5 2 24-17 9 8 133 57 47 21-26-2-6 2-7 16 5v-13l29 8v-9l36 10"/><path stroke="#09151e" stroke-width="1.9" d="m1485 522-48-20-13-97 8-9h9l88 67-18 57-22-11-4 13"/><path fill="url(#b)" stroke="#232323" stroke-width="3.1" d="m1486 522-48-20-13-96 8-9h8l88 66-17 57-23-10-3 12"/><path stroke="#09151e" stroke-width="1.9" d="m1422 595 14-89 71 28-10 17 48 21-8 34-56-28-1 5h-5l-9 27-44-15"/><path fill="url(#b)" stroke="#232323" stroke-width="3.1" d="m1423 595 13-89 71 28-9 17 48 21-8 35-56-29-1 6-6-1-8 28-44-16"/><path stroke="#09151e" stroke-width="1.9" d="m1332 678-53-202-42-176 52-36 84 98 15 129h-12l-27 187h-17"/><path fill="url(#b)" stroke="#232323" stroke-width="3.1" d="m1332 678-52-202-42-175 51-37 84 98 16 129h-12l-27 187h-18"/><path stroke="#09151e" stroke-width="1.9" d="m1908 953-35-16-37-21 20-63 60 29 3 14-11 57"/><path fill="url(#b)" stroke="#232323" stroke-width="3.1" d="m1909 954-36-16-36-21 20-64 60 29 2 14-10 58"/><path stroke="#09151e" stroke-width="1.9" d="m1954 980-46-27 11-57 2-14 27 16 3-24 23 12-20 94"/><path fill="url(#b)" stroke="#232323" stroke-width="3.1" d="m1955 981-46-27 10-58 3-14 27 16 3-24 23 13-20 94"/><path stroke="#09151e" stroke-width="1.9" d="m1978 871-36-17 11-41 36 17-11 41"/><path fill="url(#b)" stroke="#232323" stroke-width="3.1" d="m1979 872-36-17 11-42 35 17-10 42"/><path stroke="#09151e" stroke-width="1.9" d="m2074 1175 8-27-18-14 9-29-46-31-5 6-22-18-1-7-52-28-11 31-21-12-8 30 167 99"/><path fill="url(#b)" stroke="#232323" stroke-width="3.1" d="m2075 1176 8-27-18-15 8-28-45-32-5 6-22-18-1-7-52-27-11 31-21-13-8 30 167 100"/><path stroke="#09151e" stroke-width="1.9" d="m1971 1210-83-18 13-71 7-24 39 17-15 53 42 10-3 33"/><path fill="url(#b)" stroke="#232323" stroke-width="3.1" d="m1972 1211-83-19 13-70 7-24 39 17-16 52 43 11-3 33"/><path stroke="#09151e" stroke-width="1.9" d="M2445 1601h-74l-13-61-3-12 70 2 20 71"/><path fill="url(#b)" stroke="#232323" stroke-width="3.1" d="M2446 1602h-74l-13-61-3-12 70 2 20 71"/><path stroke="#09151e" stroke-width="1.9" d="m2552 1681-18-77 61 6 16 74-59-3"/><path fill="url(#b)" stroke="#232323" stroke-width="3.1" d="m2553 1682-18-77 61 6 16 74-59-3"/><path stroke="#09151e" stroke-width="1.9" d="m2527 1599-20-72 73 9 15 74-68-11"/><path fill="url(#b)" stroke="#232323" stroke-width="3.1" d="m2528 1600-20-73 73 9 15 75-68-11"/><path stroke="#09151e" stroke-width="1.9" d="m2445 1601 82-2-20-72-82 3 20 71"/><path fill="url(#b)" stroke="#232323" stroke-width="3.1" d="m2446 1602 82-2-20-73-82 4 20 71"/><path stroke="#09151e" stroke-width="1.9" d="m2296 1547-3-10-11-2-14-58 69 2 21 61-18-2 3 12-47-3"/><path fill="url(#b)" stroke="#232323" stroke-width="3.1" d="m2297 1548-3-10-11-2-14-59 69 2 21 62-18-3 3 13-47-3"/><path stroke="#09151e" stroke-width="1.9" d="m2212 1538-20-66 20 1v-5l31 1 3 5 22 3 14 58-37-5 2 11-35-3"/><path fill="url(#b)" stroke="#232323" stroke-width="3.1" d="m2213 1539-20-67 20 1v-5l31 2 3 5 22 2 14 59-37-6 2 11-35-2"/><path stroke="#09151e" stroke-width="1.9" d="m2292 1414-2-40 33 16 5 28-36-4"/><path fill="url(#b)" stroke="#232323" stroke-width="3.1" d="m2293 1415-2-41 33 17 5 27-36-3"/><path stroke="#09151e" stroke-width="1.9" d="m2292 1414-54-4-1-6-5-41 17 4v-10l41 17 2 40"/><path fill="url(#b)" stroke="#232323" stroke-width="3.1" d="m2293 1415-54-4-1-6-5-42 17 4v-9l41 16 2 41"/><path stroke="#09151e" stroke-width="1.9" d="m2237 1404-33-2-10-58-4-23 34 15 13 68"/><path fill="url(#b)" stroke="#232323" stroke-width="3.1" d="m2238 1405-34-3-9-57-4-23 34 15 13 68"/><path stroke="#09151e" stroke-width="1.9" d="m2162 1403-13-62 45 3 9 62-41-3"/><path fill="url(#b)" stroke="#232323" stroke-width="3.1" d="m2162 1404-12-63 45 4 9 61-42-2"/><path stroke="#09151e" stroke-width="1.9" d="m2162 1403-35-4-7-63 28 1 14 66"/><path fill="url(#b)" stroke="#232323" stroke-width="3.1" d="m2162 1404-34-4-7-63 28 1 13 66"/><path stroke="#09151e" stroke-width="1.9" d="m2459 1427-58-22 12-60 56 24-10 58"/><path fill="url(#b)" stroke="#232323" stroke-width="3.1" d="m2460 1428-58-22 12-61 56 24-10 59"/><path stroke="#09151e" stroke-width="1.9" d="M2469 1369v-34l-2-5-11-31-40 2-3 44 56 24"/><path fill="url(#b)" stroke="#232323" stroke-width="3.1" d="M2470 1369v-33l-2-6-11-30-40 2-3 43 56 24"/><path stroke="#09151e" stroke-width="1.9" d="m2467 1330 67 2-8-35-70 2 11 31"/><path fill="url(#b)" stroke="#232323" stroke-width="3.1" d="m2468 1330 67 3-8-36-70 3 11 30"/><path stroke="#09151e" stroke-width="1.9" d="m2622 1246-34 2-1-6-3-40-3-35h28l13 79"/><path fill="url(#b)" stroke="#232323" stroke-width="3.1" d="m2623 1246-34 3-1-6-3-40-3-36h28l13 79"/><path stroke="#09151e" stroke-width="1.9" d="m2571 1172-41-3-11-57 42 8 10 52"/><path fill="url(#b)" stroke="#232323" stroke-width="3.1" d="m2572 1172-40-3-12-56 42 7 10 52"/><path stroke="#09151e" stroke-width="1.9" d="m2524 1244-63 1-16 3-16-3-6-6v-12l8-30 34 11 7 1 42 9 10 26"/><path fill="url(#b)" stroke="#232323" stroke-width="3.1" d="M2525 1245h-63l-16 3-16-3-6-5v-13l9-30 33 11 7 1 42 9 10 27"/><path stroke="#09151e" stroke-width="1.9" d="m2431 1197 4-29 39 22-2 19-7-1-34-11"/><path fill="url(#b)" stroke="#232323" stroke-width="3.1" d="m2433 1197 3-29 39 22-2 19-7-1-33-11"/><path stroke="#09151e" stroke-width="1.9" d="m2487 1196 12-21-29-17-34-20-4 27 55 31"/><path fill="url(#b)" stroke="#232323" stroke-width="3.1" d="m2488 1197 12-21-29-17-34-20-4 26 55 32"/><path stroke="#09151e" stroke-width="1.9" d="m2470 1158 10-21 3-42-42-14-5 57 34 20"/><path fill="url(#b)" stroke="#232323" stroke-width="3.1" d="m2471 1159 10-21 3-43-42-14-5 58 34 20"/><path stroke="#09151e" stroke-width="1.9" d="m2524 1165-44-28 3-42 32 11 9 59"/><path fill="url(#b)" stroke="#232323" stroke-width="3.1" d="m2525 1165-44-27 3-43 33 12 8 58"/><path stroke="#09151e" stroke-width="1.9" d="M2587 1242h-37l11-29-62-38-29-17 10-21 44 28 60 37 3 40"/><path fill="url(#b)" stroke="#232323" stroke-width="3.1" d="M2588 1243h-37l11-30-62-37-29-17 10-21 44 27 60 38 3 40"/><path stroke="#09151e" stroke-width="1.9" d="m841 553 50-40 43-34-25-28-203-239 8-7 46-37-69-80-9 5-27-29-37 32-13-13-34-13-28-5-27 4-21 11-6 3-11 29 2 29 11 30 16 29-15 13-26 21 85 94 8 9 55-46 166 194 14 15 47 53"/><path fill="url(#b)" stroke="#232323" stroke-width="3.1" d="m841 554 51-41 42-34-25-28-203-239 8-7 46-37-68-80-9 5-28-29-37 32-12-13-35-13-28-5-27 4-20 11-7 3-10 29 1 29 11 30 16 29-15 13-25 21 84 94 9 9 54-46 166 194 15 15 46 54"/><path stroke="#09151e" stroke-width="1.9" d="m948 494 272-214 23-18-69-86-65 52 11 16-201 159 19 25-29 23 25 28 14 15"/><path fill="url(#b)" stroke="#232323" stroke-width="3.1" d="m948 494 273-213 23-19-70-86-65 52 11 16-200 160 18 24-29 23 25 28 14 15"/><path stroke="#09151e" stroke-width="1.9" d="m312 525-75-87-8-9 74-62 163-133 85 94-127 105-112 92"/><path fill="url(#b)" stroke="#232323" stroke-width="3.1" d="m312 525-75-87-8-8 74-63 164-133 84 94-126 105-113 92"/><path stroke="#09151e" stroke-width="1.9" d="M744 486 612 331l2-40 166 194-36 1"/><path fill="url(#b)" stroke="#232323" stroke-width="3.1" d="M744 486 613 332l1-41 166 194-36 1"/><path stroke="#09151e" stroke-width="1.9" d="M612 331 473 443l42 48 19-15 14 2 11 13v17l-20 15 63 76 142-113 36-1 14 15-189 147-65-76-71-85-45-53 127-105 8 9 55-46-2 40"/><path fill="url(#b)" stroke="#232323" stroke-width="3.1" d="M613 332 474 443l41 48 20-15 14 2 10 14v17l-19 14 62 76 142-113 36-1 15 15-189 147-66-75-71-86-44-53 126-105 9 9 54-46-1 41"/><path stroke="#09151e" stroke-width="1.9" d="m426 660-73-85 116-89 71 85-114 89"/><path fill="url(#b)" stroke="#232323" stroke-width="3.1" d="m427 660-73-85 115-89 71 86-113 88"/><path stroke="#09151e" stroke-width="1.9" d="m353 575-41-50 112-92 45 53-116 89"/><path fill="url(#b)" stroke="#232323" stroke-width="3.1" d="m354 575-42-50 113-92 44 53-115 89"/><path stroke="#09151e" stroke-width="1.9" d="m98 435 7 8 54 62 55-47-47-57-20 21-22 4-8-9-19 18"/><path fill="url(#b)" stroke="#232323" stroke-width="3.1" d="m98 435 7 8 54 62 55-47-47-57-20 21-22 4-8-9-19 18"/><path stroke="#09151e" stroke-width="1.9" d="M179 707 66 578l35-28 9-7 5 6 95 109 13 14-44 35"/><path fill="url(#b)" stroke="#232323" stroke-width="3.1" d="M179 707 66 578l35-28 9-7 5 6 96 109 12 14-44 35"/><path stroke="#09151e" stroke-width="1.9" d="m206 740-27-33 44-35 26 32-40 34-3 2"/><path fill="url(#b)" stroke="#232323" stroke-width="3.1" d="m207 740-28-33 44-35 26 32-40 34-2 2"/><path stroke="#09151e" stroke-width="1.9" d="m255 786-28-30-18-18 40-34 47 53-41 29"/><path fill="url(#b)" stroke="#232323" stroke-width="3.1" d="m255 786-28-29-18-19 40-34 47 53-41 29"/><path stroke="#09151e" stroke-width="1.9" d="m264 843-24-39 20-10-5-8 41-29 44 52-4 21-72 13"/><path fill="url(#b)" stroke="#232323" stroke-width="3.1" d="m264 843-24-39 20-10-5-8 41-29 44 53-4 20-72 13"/><path stroke="#09151e" stroke-width="1.9" d="m264 843-42 5-33-88 38-4 28 30 5 8-20 10 24 39"/><path fill="url(#b)" stroke="#232323" stroke-width="3.1" d="m264 843-42 5-33-88 38-3 28 29 5 8-20 10 24 39"/><path stroke="#09151e" stroke-width="1.9" d="m222 848-43 6-34-88 44-6 33 88"/><path fill="url(#b)" stroke="#232323" stroke-width="3.1" d="m222 848-43 7-33-89 43-6 33 88"/><path stroke="#09151e" stroke-width="1.9" d="m179 854-50 15-30-89-3-8 49-6 34 88"/><path fill="url(#b)" stroke="#232323" stroke-width="3.1" d="m179 855-50 14-30-89-3-8 50-6 33 89"/><path stroke="#09151e" stroke-width="1.9" d="m93 880-22-86h5l-2-15 25 1 30 89-36 11"/><path fill="url(#b)" stroke="#232323" stroke-width="3.1" d="m93 880-22-85 5-1-2-15 25 1 30 89-36 11"/><path stroke="#09151e" stroke-width="1.9" d="m93 880-28 5-12-9-24-91 42 9 22 86"/><path fill="url(#b)" stroke="#232323" stroke-width="3.1" d="m93 880-28 5-12-8-24-91 42 9 22 85"/><path stroke="#09151e" stroke-width="1.9" d="m899 1280-42-4-28-8-2-30-1-9-10-4-1-11h9l-1-13 8 2 2-46 60 21 6 102"/><path fill="url(#b)" stroke="#232323" stroke-width="3.1" d="m899 1281-42-5-27-8-3-29v-9l-10-5-1-11h8v-13l7 2 2-45 60 20 6 103"/><path stroke="#09151e" stroke-width="1.9" d="m800 1216-18-5-38-12 3-67 86 25-2 46-8-2 1 13h-9l-14-5-1 7"/><path fill="url(#b)" stroke="#232323" stroke-width="3.1" d="m800 1217-17-6-39-11 3-68 86 26-2 45-7-2v13h-8l-15-4-1 7"/><path stroke="#09151e" stroke-width="1.9" d="m742 1202-72-26 6-64 71 20-5 70"/><path fill="url(#b)" stroke="#232323" stroke-width="3.1" d="m743 1203-73-26 6-65 71 20-4 71"/><path stroke="#09151e" stroke-width="1.9" d="m827 1238-46-12 1-15 18 5 1-7 14 5 1 11 10 4 1 9"/><path fill="url(#b)" stroke="#232323" stroke-width="3.1" d="m827 1239-46-12 2-16 17 6 1-7 15 4 1 11 10 5v9"/><path stroke="#09151e" stroke-width="1.9" d="m1237 300-17-20-272 214-14-15-93 74 14 17-306 236-151 32 83 11 112 25 55 12 236 12 446 22h6l-10-34-114-409 37-1h30l-42-176"/><path fill="url(#b)" stroke="#232323" stroke-width="3.1" d="m1238 301-17-20-273 213-14-15-93 75 15 17-307 236-151 32 84 10 111 25 55 13 237 11 445 22 7 1-10-34-115-410h37l31-1-42-175"/><path stroke="#09151e" stroke-width="1.9" d="m2348 1103-62-44 38-40 40 18 23 12 25 27-64 27"/><path fill="url(#b)" stroke="#232323" stroke-width="3.1" d="m2349 1104-62-44 38-41 40 19 23 12 25 27-64 27"/><g stroke="#220a0a" stroke-linecap="round" stroke-width="11.8"><path d="m1384 764-55 22M1529 1483l-24-96-70-222M2371 1453l47 23 47 18 56 7 938 23M79 907l21-8 298-51M2399 1261l-491-283-242-127-71-31-208-96M399 848l62 10 115 29 68 17 242 14 461 26 28 2"/><path d="m2425 1063-26 198-5 50-7 82-16 60"/><path d="m2381 1407-40-22-179-82-120-43-449-101-166 23-140 83-118 20-94-30-197-114-215-59-145-46-120-50M2371 1453l-31-9-27-5-27-3-718-49h-63M1375 946l4-72 8-150M1402 337l1-44 10-47 42-113"/><path d="m1435 1165-43-155-17-64M2399 1261l186 4M1387 724l11-95 12-115v-37l-8-140M2600 1504l25 123"/></g><g fill="#d5b43c" stroke="#232323"><path d="M903 513a12 12 0 1 1-24 0 12 12 0 0 1 24 0M2710 1617a12 12 0 1 1-24 0 12 12 0 0 1 24 0" vector-effect="non-scaling-stroke"/></g></g></svg>
