<svg xmlns="http://www.w3.org/2000/svg" xml:space="preserve" width="50" height="50">
  <path d="M1 1h0v47.6h7.2v-21.6h9.8a1 1 0 00-0-26zm7 19v-11.9h10a1 1 0 010 11.9zm40.8 17c-.2-.5-.7-1-.7-1l-2.4-6.3c-.5-1-1.5-1.7-2.6-1.8h-12.4c-.6 0-2 .6-2.6 1.8l-2.3 6.4s-.6.4-.8.9c-.2.4-.5.8-.5 3.6 0 2.7.6 3.7 1.3 4l.5.3v2.6c0 .8.2 1 1 1h1.7c.8 0 1.3 0 1.3-.8v-2.5h13.2v2.5c0 .8.5.8 1.3.8h1.8c.8 0 1-.2 1-1v-2.6l.5-.3c.7-.3 1.2-1.3 1.2-4 0-2.8-.3-3.2-.5-3.6zm-20.8-1.4 1.2-4.6c.2-.4 1-1.5 2-1.4h11.6c1 0 1.9 1 2 1.4.3 1.1 1 4.3 1.2 4.6.1.5-.3.5-.3.5h-17.4s-.5 0-.4-.5zm1.3 6.3a1.5 1.5 0 01-1.5-1.6c0-.8.7-1.5 1.5-1.5s1.5.7 1.5 1.5c0 .9-.7 1.6-1.5 1.6zm15.5 0a1.6 1.6 0 01-1.5-1.6c0-.8.7-1.5 1.5-1.5s1.5.7 1.5 1.5c0 .9-.6 1.6-1.5 1.6z"/>
</svg>
