<svg xmlns="http://www.w3.org/2000/svg" xml:space="preserve" width="50" height="50">
  <path d="M32.8 14.3A12.9 12.9 0 0 0 19 1.5H7.4v.1h-6v47h6.8V27h10.7c7.1 0 13.8-5.6 14-12.8zm-14 6.2H8.2V8.1h10.6c3.1.2 6 3 6 6.2a6.6 6.6 0 0 1-6 6.2zm30 16.5c-.2-.5-.7-1-.7-1l-2.4-6.3c-.5-1-1.5-1.7-2.6-1.8H30.7c-.6 0-2 .6-2.6 1.8l-2.3 6.4s-.6.4-.8.9c-.2.4-.5.8-.5 3.6 0 2.7.6 3.7 1.3 4l.5.3v2.6c0 .8.2 1 1 1H29c.8 0 1.3 0 1.3-.8v-2.5h13.2v2.5c0 .8.5.8 1.3.8h1.8c.8 0 1-.2 1-1v-2.6l.5-.3c.7-.3 1.2-1.3 1.2-4 0-2.8-.3-3.2-.5-3.6zM28 35.6l1.2-4.6c.2-.4 1-1.5 2-1.4h11.6c1 0 1.9 1 2 1.4.3 1.1 1 4.3 1.2 4.6.1.5-.3.5-.3.5H28.3s-.5 0-.4-.5zm1.3 6.3a1.5 1.5 0 0 1-1.5-1.6c0-.8.7-1.5 1.5-1.5s1.5.7 1.5 1.5c0 .9-.7 1.6-1.5 1.6zm15.5 0a1.6 1.6 0 0 1-1.5-1.6c0-.8.7-1.5 1.5-1.5s1.5.7 1.5 1.5c0 .9-.6 1.6-1.5 1.6z"/>
</svg>
